<svg width="400" height="400" viewBox="0 0 400 400" fill="none" xmlns="http://www.w3.org/2000/svg">
<path d="M174.532 174.206L169.612 202.095C169.455 202.982 169.769 203.651 170.553 204.1C171.341 204.532 171.678 205.067 171.566 205.703C171.445 206.39 170.999 206.665 170.228 206.53L161.71 205.029C160.957 204.896 160.64 204.486 160.762 203.799C160.874 203.163 161.374 202.776 162.262 202.639C163.152 202.485 163.675 201.972 163.828 201.101L168.753 173.187C168.907 172.316 168.59 171.664 167.803 171.232C167.018 170.783 166.684 170.232 166.799 169.579C166.92 168.892 167.366 168.616 168.136 168.752L176.629 170.249C177.4 170.385 177.724 170.796 177.603 171.483C177.488 172.136 176.985 172.539 176.094 172.693C175.206 172.83 174.686 173.335 174.532 174.206Z" fill="#A62626"/>
<path d="M115.851 191.961C117.091 192.274 118.358 192.337 119.653 192.149C120.954 191.946 122.12 191.412 123.151 190.549C124.237 189.632 125.045 188.356 125.576 186.723L125.663 186.456C126.161 184.758 125.946 183.275 125.016 182.008C124.603 181.408 124.037 180.867 123.318 180.383C121.783 179.384 120.141 178.493 118.392 177.71C116.665 176.917 115.091 175.843 113.672 174.488C112.355 173.255 111.543 171.82 111.235 170.182C110.948 168.533 111.068 166.9 111.594 165.283C112.619 162.128 114.569 159.9 117.442 158.598C120.428 157.225 123.661 157.103 127.139 158.233L127.891 158.477C131.575 159.852 134.522 161.9 136.732 164.62L134.382 169.786C134.128 170.347 133.677 170.523 133.03 170.312L132.909 170.273C132.434 170.083 132.154 169.625 132.068 168.9C131.873 167.299 131.308 165.819 130.372 164.46C129.453 163.106 128.308 162.171 126.938 161.655L126.574 161.537C125.183 161.085 123.883 160.931 122.673 161.075C121.862 161.205 121.186 161.414 120.645 161.703C120.12 161.998 119.604 162.402 119.096 162.917C118.691 163.34 118.313 163.87 117.963 164.507C117.686 164.972 117.477 165.423 117.335 165.859C117.146 166.442 117.059 167.013 117.074 167.572C117.06 168.658 117.341 169.581 117.917 170.34C118.331 170.94 118.843 171.428 119.453 171.805C119.821 172.049 120.272 172.312 120.807 172.593C121.341 172.874 121.908 173.165 122.508 173.467C123.382 173.912 124.311 174.384 125.294 174.882C126.293 175.385 127.247 175.945 128.155 176.562C129.702 177.69 130.754 178.855 131.312 180.055C131.695 180.966 131.952 181.908 132.083 182.881C132.173 184.144 132.003 185.439 131.572 186.765C130.404 190.356 127.967 192.873 124.261 194.316C122.335 195.068 120.353 195.444 118.314 195.443C116.673 195.429 115.001 195.181 113.298 194.699C112.937 194.6 112.578 194.493 112.222 194.377C109.909 193.626 107.703 192.516 105.605 191.048L105.38 183.652C105.374 183.507 105.392 183.369 105.434 183.24C105.513 182.997 105.67 182.789 105.905 182.615C106.274 182.306 106.717 182.235 107.235 182.403C107.635 182.658 107.881 183.113 107.971 183.769C108.259 186.241 109.017 188.061 110.247 189.229C111.255 190.2 112.697 190.99 114.574 191.6C114.978 191.731 115.404 191.851 115.851 191.961Z" fill="#A62626"/>
<path d="M218.51 173.741C219.263 176.061 220.131 178.724 221.115 181.729C222.115 184.736 223.142 187.831 224.195 191.013C225.265 194.197 226.292 197.292 227.275 200.298C228.275 203.305 229.12 205.837 229.811 207.895C229.984 208.457 230.373 208.986 230.978 209.483C231.315 209.734 231.662 209.961 232.02 210.163C232.395 210.366 232.71 210.573 232.965 210.783C233.202 210.992 233.355 211.193 233.424 211.387C233.481 211.512 233.504 211.642 233.492 211.777C233.482 211.896 233.428 212.028 233.33 212.173C233.169 212.449 232.868 212.568 232.428 212.529L223.837 211.778C223.532 211.751 223.252 211.633 222.997 211.423C222.727 211.194 222.575 210.985 222.54 210.794C222.497 210.705 222.481 210.592 222.493 210.457C222.518 210.169 222.694 209.911 223.021 209.683C223.204 209.546 223.395 209.417 223.593 209.298C223.793 209.162 223.935 208.995 224.021 208.798C224.064 208.699 224.09 208.59 224.101 208.472C224.121 208.234 224.085 207.967 223.992 207.668L221.112 199.016L207.21 197.801C206.595 198.976 205.918 200.266 205.181 201.67C204.462 203.058 203.734 204.446 202.998 205.833C202.836 206.126 202.736 206.39 202.698 206.626C202.672 206.726 202.655 206.827 202.646 206.929C202.634 207.064 202.64 207.193 202.663 207.314C202.699 207.488 202.762 207.647 202.852 207.792C202.959 207.938 203.044 208.133 203.108 208.378C203.11 208.549 203.108 208.668 203.102 208.736C203.092 208.854 203.057 208.962 202.997 209.059C202.742 209.635 202.326 209.897 201.75 209.847L195.193 209.273C194.769 209.236 194.454 209.03 194.248 208.653C194.251 208.619 194.239 208.567 194.211 208.496C194.223 208.36 194.262 208.202 194.329 208.02C194.531 207.662 194.949 207.374 195.583 207.156C195.83 207.058 196.104 206.954 196.404 206.844C196.704 206.734 196.998 206.597 197.285 206.434C197.861 206.092 198.292 205.66 198.577 205.139L216.019 173.524L218.51 173.741ZM220.06 195.825L215.488 181.929C214.667 183.513 213.601 185.546 212.291 188.026C210.998 190.508 209.818 192.778 208.75 194.836L220.06 195.825Z" fill="#A62626"/>
<path d="M271.389 211.856C271.235 212.727 271.55 213.387 272.335 213.836C273.122 214.268 273.459 214.803 273.347 215.439C273.226 216.126 272.788 216.403 272.035 216.27L263.517 214.769C262.746 214.633 262.422 214.222 262.543 213.535C262.655 212.899 263.147 212.51 264.018 212.37C264.892 212.213 265.406 211.7 265.559 210.829L270.534 182.923C270.685 182.069 270.368 181.417 269.584 180.968C268.8 180.519 268.465 179.968 268.58 179.315C268.701 178.628 269.147 178.352 269.918 178.488L284.742 181.101C286.551 181.419 288.387 182.08 290.248 183.081C292.129 184.069 293.455 185.607 294.227 187.694C294.801 189.333 294.907 191.182 294.543 193.242C294.161 195.213 293.277 196.896 291.891 198.293C290.677 199.495 289.123 200.275 287.229 200.632C285.335 200.989 283.66 201.039 282.203 200.782L273.609 199.268L271.389 211.856ZM276.508 182.836L274.097 196.504L279.298 197.421C280.387 197.613 281.502 197.654 282.644 197.544C283.806 197.421 284.85 197.035 285.776 196.386C287.225 195.415 288.127 193.925 288.482 191.915C288.822 189.989 288.459 188.275 287.394 186.775C286.268 185.23 284.54 184.252 282.212 183.841L276.508 182.836Z" fill="#A62626"/>
<path d="M284.449 125.31H257.47C256.353 102.527 252.056 90.6878 239.484 70.8209C228.003 56.0284 219.271 48.7162 199.016 37.6783C170.117 26.1438 153.678 23.8068 123.701 30.9375C101.017 37.0642 90.505 43.8143 77.6123 64.6418C71.4955 81.3901 73.2444 90.1532 82.1088 105.087C94.1276 121.683 104.542 125.326 123.701 130.927C150.242 136.016 165.131 137.463 191.71 134.859C224.432 131.838 242.659 132.079 274.894 137.106C326.269 145.722 348.785 159.17 372.13 206.2C379.942 235.18 382.547 250.924 372.13 274.732C366.311 284.943 362.396 289.737 351.896 293.269L339.53 271.923C353.292 250.862 350.015 236.252 339.53 209.009C323.318 181.161 305.995 171.343 265.339 160.699C236.893 154.396 220.737 153.772 191.71 155.643C163.429 156.356 147.872 154.422 120.891 144.97C95.0947 135.119 82.2033 126.773 62.9989 105.087C49.8364 85.229 49.0752 73.5952 55.1301 52.2835C69.3266 23.3012 83.3876 12.4229 120.891 3.97404C155.455 -3.00697 172.859 -0.462152 202.389 9.02968C230.456 19.8977 242.743 29.7964 260.281 52.2835C276.875 76.2398 281.293 92.7858 284.449 125.31Z" fill="#A62626"/>
<path d="M114.551 274.69H141.53C142.647 297.472 146.944 309.312 159.516 329.179C170.997 343.971 179.729 351.283 199.984 362.321C228.883 373.856 245.322 376.193 275.299 369.062C297.983 362.935 308.495 356.185 321.388 335.358C327.505 318.609 325.756 309.846 316.891 294.913C304.872 278.317 294.458 274.674 275.299 269.073C248.758 263.984 233.869 262.536 207.29 265.14C174.568 268.162 156.341 267.921 124.106 262.893C72.7309 254.277 50.2149 240.829 26.8704 193.8C19.0583 164.819 16.4535 149.075 26.8704 125.268C32.689 115.057 36.6038 110.263 47.1044 106.73L59.4696 128.076C45.7079 149.137 48.9847 163.748 59.4696 190.991C75.6816 218.839 93.0052 228.657 133.661 239.3C162.107 245.603 178.263 246.228 207.29 244.356C235.571 243.643 251.128 245.577 278.109 255.029C303.905 264.881 316.797 273.227 336.001 294.913C349.164 314.77 349.925 326.404 343.87 347.716C329.673 376.698 315.612 387.577 278.109 396.025C243.545 403.006 226.141 400.462 196.611 390.97C168.544 380.102 156.257 370.203 138.719 347.716C122.125 323.76 117.707 307.214 114.551 274.69Z" fill="#A62626"/>
</svg>
