<svg width="27" height="26" viewBox="0 0 27 26" fill="none" xmlns="http://www.w3.org/2000/svg">
<path d="M24.9231 4.40568H19.7308V3.36722C19.7308 2.54096 19.4025 1.74855 18.8183 1.16431C18.234 0.580058 17.4416 0.251831 16.6154 0.251831H10.3846C9.55836 0.251831 8.76595 0.580058 8.18171 1.16431C7.59746 1.74855 7.26923 2.54096 7.26923 3.36722V4.40568H2.07692C1.52609 4.40568 0.997815 4.6245 0.608317 5.01399C0.218818 5.40349 0 5.93177 0 6.4826V23.098C0 23.6488 0.218818 24.1771 0.608317 24.5666C0.997815 24.9561 1.52609 25.1749 2.07692 25.1749H24.9231C25.4739 25.1749 26.0022 24.9561 26.3917 24.5666C26.7812 24.1771 27 23.6488 27 23.098V6.4826C27 5.93177 26.7812 5.40349 26.3917 5.01399C26.0022 4.6245 25.4739 4.40568 24.9231 4.40568ZM9.34615 3.36722C9.34615 3.0918 9.45556 2.82766 9.65031 2.63291C9.84506 2.43816 10.1092 2.32875 10.3846 2.32875H16.6154C16.8908 2.32875 17.1549 2.43816 17.3497 2.63291C17.5444 2.82766 17.6538 3.0918 17.6538 3.36722V4.40568H9.34615V3.36722ZM17.6538 6.4826V23.098H9.34615V6.4826H17.6538ZM2.07692 6.4826H7.26923V23.098H2.07692V6.4826ZM24.9231 23.098H19.7308V6.4826H24.9231V23.098Z" fill="#1C1C1C"/>
</svg>
