<svg width="24" height="25" viewBox="0 0 24 25" fill="none" xmlns="http://www.w3.org/2000/svg">
<g clip-path="url(#clip0_273_588)">
<path d="M12.3217 1.07349H4.10743C3.67172 1.07349 3.25385 1.24657 2.94576 1.55467C2.63766 1.86276 2.46457 2.28063 2.46457 2.71634V17.5021L0.821716 22.4306L7.39315 20.7878H20.536C20.9717 20.7878 21.3896 20.6147 21.6977 20.3066C22.0058 19.9985 22.1789 19.5806 22.1789 19.1449V10.9306" stroke="#A62626" stroke-width="1.64286" stroke-linecap="round" stroke-linejoin="round"/>
<path d="M13.7391 13.6193L8.81049 14.5064L9.63191 9.51214L17.4026 1.77428C17.5554 1.6203 17.7371 1.49808 17.9373 1.41468C18.1375 1.33127 18.3522 1.28833 18.5691 1.28833C18.7859 1.28833 19.0007 1.33127 19.2009 1.41468C19.4011 1.49808 19.5828 1.6203 19.7355 1.77428L21.4769 3.51571C21.6309 3.66844 21.7531 3.85014 21.8365 4.05034C21.9199 4.25053 21.9629 4.46527 21.9629 4.68214C21.9629 4.89902 21.9199 5.11375 21.8365 5.31395C21.7531 5.51414 21.6309 5.69585 21.4769 5.84857L13.7391 13.6193Z" stroke="#A62626" stroke-width="1.64286" stroke-linecap="round" stroke-linejoin="round"/>
</g>
<defs>
<clipPath id="clip0_273_588">
<rect width="23" height="23" fill="white" transform="translate(0 0.251831)"/>
</clipPath>
</defs>
</svg>
