<svg width="24" height="25" viewBox="0 0 24 25" fill="none" xmlns="http://www.w3.org/2000/svg">
<g clip-path="url(#clip0_160_717)">
<path d="M12.3217 1.07349H4.10737C3.67166 1.07349 3.25379 1.24657 2.94569 1.55467C2.6376 1.86276 2.46451 2.28063 2.46451 2.71634V17.5021L0.821655 22.4306L7.39308 20.7878H20.5359C20.9717 20.7878 21.3895 20.6147 21.6976 20.3066C22.0057 19.9985 22.1788 19.5806 22.1788 19.1449V10.9306" stroke="#1C1C1C" stroke-width="1.64286" stroke-linecap="round" stroke-linejoin="round"/>
<path d="M13.739 13.6193L8.81042 14.5064L9.63185 9.51214L17.4026 1.77428C17.5553 1.6203 17.737 1.49808 17.9372 1.41468C18.1374 1.33127 18.3521 1.28833 18.569 1.28833C18.7859 1.28833 19.0006 1.33127 19.2008 1.41468C19.401 1.49808 19.5827 1.6203 19.7354 1.77428L21.4769 3.51571C21.6308 3.66844 21.7531 3.85014 21.8365 4.05034C21.9199 4.25053 21.9628 4.46527 21.9628 4.68214C21.9628 4.89902 21.9199 5.11375 21.8365 5.31395C21.7531 5.51414 21.6308 5.69585 21.4769 5.84857L13.739 13.6193Z" stroke="#1C1C1C" stroke-width="1.64286" stroke-linecap="round" stroke-linejoin="round"/>
</g>
<defs>
<clipPath id="clip0_160_717">
<rect width="23" height="23" fill="white" transform="translate(0 0.251831)"/>
</clipPath>
</defs>
</svg>
