<svg width="24" height="25" viewBox="0 0 24 25" fill="none" xmlns="http://www.w3.org/2000/svg">
<path d="M21.7 6.50897L14.7 0.508974C14.5 0.337545 14.3 0.251831 14 0.251831H4C2.9 0.251831 2 1.02326 2 1.96612V22.5375C2 23.4804 2.9 24.2518 4 24.2518H20C21.1 24.2518 22 23.4804 22 22.5375V7.10897C22 6.85183 21.9 6.6804 21.7 6.50897ZM14 2.30897L19.6 7.10897H14V2.30897ZM20 22.5375H4V1.96612H12V7.10897C12 8.05183 12.9 8.82326 14 8.82326H20V22.5375Z" fill="#1C1C1C"/>
<path d="M7 16.3768H14.5V18.2518H7V16.3768ZM7 10.7518H14.5V12.6268H7V10.7518Z" fill="#1C1C1C"/>
</svg>
