<svg width="24" height="24" viewBox="0 0 24 24" fill="none" xmlns="http://www.w3.org/2000/svg">
<path d="M4.22222 17.7778H5.80555L16.6667 6.91667L15.0833 5.33333L4.22222 16.1944V17.7778ZM2 20V15.2778L16.6667 0.638889C16.8889 0.435185 17.1344 0.277778 17.4033 0.166667C17.6722 0.0555557 17.9544 0 18.25 0C18.5455 0 18.8326 0.0555557 19.1111 0.166667C19.3896 0.277778 19.6304 0.444444 19.8333 0.666667L21.3611 2.22222C21.5833 2.42593 21.7455 2.66667 21.8478 2.94444C21.95 3.22222 22.0007 3.5 22 3.77778C22 4.07407 21.9493 4.35667 21.8478 4.62556C21.7463 4.89444 21.5841 5.13963 21.3611 5.36111L6.72222 20H2ZM15.8611 6.13889L15.0833 5.33333L16.6667 6.91667L15.8611 6.13889Z" fill="#BBC7CD"/>
</svg>
