<svg width="251" height="61" viewBox="0 0 251 61" fill="none" xmlns="http://www.w3.org/2000/svg">
<path d="M37.2761 26.9347L36.2325 32.4497C36.1993 32.6252 36.2602 32.7565 36.4153 32.8434C36.5709 32.9271 36.6369 33.0318 36.613 33.1577C36.5873 33.2935 36.498 33.3488 36.345 33.3237L34.6534 33.0458C34.5037 33.0212 34.4417 32.941 34.4674 32.8052C34.4913 32.6793 34.5917 32.6019 34.7686 32.5729C34.9462 32.5406 35.0513 32.4383 35.0839 32.2661L36.1285 26.7461C36.1611 26.5739 36.0995 26.4459 35.9439 26.3623C35.7888 26.2753 35.7235 26.1673 35.748 26.0381C35.7737 25.9023 35.863 25.847 36.016 25.8721L37.7026 26.1492C37.8556 26.1744 37.9193 26.2548 37.8936 26.3906C37.8691 26.5198 37.7681 26.6006 37.5905 26.6328C37.4135 26.6618 37.3087 26.7624 37.2761 26.9347Z" fill="#A62626"/>
<path d="M27.31 30.9729C27.5575 31.0302 27.8115 31.0385 28.0718 30.9977C28.3333 30.9536 28.569 30.8455 28.7788 30.6733C28.9996 30.4903 29.1661 30.238 29.2782 29.9165L29.2965 29.864C29.4022 29.53 29.3641 29.2404 29.182 28.9953C29.1012 28.8793 28.9895 28.7751 28.8469 28.6827C28.5425 28.492 28.2162 28.3228 27.8682 28.1752C27.5245 28.0254 27.2126 27.8201 26.9325 27.5593C26.6727 27.3223 26.5147 27.044 26.4585 26.7243C26.4067 26.4025 26.4363 26.0824 26.5473 25.7641C26.7637 25.1433 27.1623 24.701 27.7431 24.4369C28.3466 24.1586 28.9952 24.1245 29.6889 24.3345L29.839 24.3799C30.5732 24.6374 31.1572 25.0289 31.5911 25.5544L31.1021 26.573C31.0493 26.6837 30.9583 26.7195 30.8293 26.6804L30.8051 26.6731C30.7105 26.6374 30.6558 26.5487 30.641 26.407C30.6074 26.0942 30.4991 25.8063 30.3162 25.5432C30.1365 25.2812 29.9101 25.1018 29.637 25.005L29.5645 24.9831C29.287 24.8991 29.0267 24.8731 28.7837 24.905C28.6206 24.9331 28.4842 24.9763 28.3747 25.0346C28.2684 25.0939 28.1635 25.1748 28.06 25.2772C27.9772 25.3612 27.8996 25.4661 27.8272 25.592C27.7702 25.6839 27.7267 25.7728 27.6967 25.8587C27.6568 25.9733 27.6373 26.0853 27.6384 26.1947C27.632 26.4074 27.6853 26.5872 27.7982 26.734C27.879 26.85 27.98 26.9439 28.1012 27.0158C28.1741 27.0625 28.2637 27.1125 28.37 27.1658C28.4762 27.2191 28.5889 27.2743 28.7081 27.3315C28.882 27.4158 29.0667 27.5052 29.2621 27.5995C29.4607 27.6949 29.65 27.8015 29.8301 27.9193C30.1365 28.1353 30.3435 28.3598 30.4513 28.593C30.525 28.7702 30.5734 28.9538 30.5963 29.1437C30.6101 29.3907 30.5715 29.6447 30.4805 29.9057C30.2341 30.6124 29.7367 31.1129 28.9885 31.4071C28.5997 31.5604 28.2009 31.6403 27.792 31.6467C27.463 31.6491 27.1285 31.6059 26.7885 31.5171C26.7164 31.4987 26.6449 31.4788 26.5739 31.4574C26.1125 31.3177 25.6739 31.1075 25.2581 30.8267L25.2384 29.3796C25.2376 29.3512 25.2416 29.3243 25.2505 29.2988C25.2671 29.2511 25.2994 29.2098 25.3472 29.175C25.4222 29.1133 25.5113 29.098 25.6146 29.1293C25.6939 29.178 25.7416 29.2663 25.7576 29.3943C25.8068 29.8773 25.9527 30.2311 26.1954 30.4559C26.3942 30.6428 26.6807 30.7929 27.055 30.9062C27.1356 30.9306 27.2206 30.9529 27.31 30.9729Z" fill="#A62626"/>
<path d="M44.8322 26.6438C44.9787 27.1022 45.1477 27.6284 45.3391 28.2223C45.5338 28.8165 45.7337 29.428 45.9388 30.0569C46.1472 30.686 46.3471 31.2976 46.5385 31.8915C46.7332 32.4857 46.8978 32.9861 47.0323 33.3928C47.0659 33.5038 47.1424 33.6081 47.2619 33.7057C47.3284 33.7551 47.397 33.7996 47.4678 33.8392C47.5419 33.8791 47.6041 33.9197 47.6544 33.961C47.7013 34.002 47.7315 34.0416 47.7448 34.0799C47.756 34.1045 47.7604 34.1302 47.7579 34.1571C47.7557 34.1806 47.7448 34.2068 47.7251 34.2356C47.6929 34.2905 47.6331 34.3143 47.5457 34.3072L45.8422 34.1683C45.7817 34.1634 45.7264 34.1403 45.6761 34.099C45.6227 34.0541 45.5928 34.0127 45.5861 33.975C45.5776 33.9574 45.5746 33.9351 45.5772 33.9083C45.5825 33.8512 45.6178 33.8 45.683 33.7546C45.7194 33.7271 45.7574 33.7015 45.7969 33.6776C45.8367 33.6504 45.8652 33.6172 45.8824 33.5781C45.891 33.5585 45.8964 33.5369 45.8986 33.5134C45.903 33.4664 45.8962 33.4135 45.878 33.3545L45.3174 31.6448L42.5605 31.4201C42.4371 31.6535 42.3013 31.9096 42.1532 32.1884C42.0088 32.4641 41.8628 32.7397 41.715 33.0151C41.6825 33.0733 41.6623 33.1258 41.6545 33.1725C41.6493 33.1924 41.6457 33.2124 41.6438 33.2325C41.6413 33.2594 41.6423 33.2848 41.6468 33.3089C41.6538 33.3432 41.666 33.3747 41.6837 33.4032C41.7047 33.4319 41.7214 33.4705 41.7338 33.5189C41.734 33.5527 41.7334 33.5763 41.7322 33.5898C41.73 33.6133 41.7229 33.6347 41.7109 33.654C41.6596 33.7682 41.5768 33.8206 41.4625 33.8113L40.1622 33.7053C40.0782 33.6984 40.016 33.6579 39.9756 33.5835C39.9762 33.5768 39.9738 33.5665 39.9684 33.5525C39.9709 33.5257 39.9789 33.4942 39.9925 33.4581C40.033 33.387 40.1163 33.3295 40.2423 33.2857C40.2915 33.266 40.3459 33.2451 40.4056 33.2229C40.4652 33.2007 40.5237 33.1733 40.5809 33.1408C40.6956 33.0724 40.7816 32.9864 40.8387 32.8828L44.3383 26.6036L44.8322 26.6438ZM45.1125 31.0143L44.2226 28.2682C44.0576 28.5829 43.8437 28.9865 43.5807 29.4791C43.3212 29.972 43.0842 30.4228 42.8697 30.8315L45.1125 31.0143Z" fill="#A62626"/>
<path d="M52.6558 33.918C52.6233 34.0903 52.6845 34.2199 52.8395 34.3068C52.9952 34.3905 53.0611 34.4952 53.0373 34.6211C53.0116 34.7569 52.9239 34.8125 52.7742 34.7879L51.0827 34.51C50.9297 34.4848 50.866 34.4043 50.8917 34.2685C50.9155 34.1427 51.0143 34.065 51.1879 34.0354C51.3622 34.0026 51.4656 33.9001 51.4982 33.7278L52.5527 28.2095C52.5847 28.0406 52.5232 27.9126 52.3681 27.8257C52.2131 27.7387 52.1478 27.6307 52.1722 27.5015C52.1979 27.3657 52.2873 27.3103 52.4403 27.3355L55.3843 27.8192C55.7435 27.8782 56.1072 28.0046 56.4753 28.1982C56.8473 28.3891 57.1077 28.6898 57.2564 29.1002C57.367 29.4223 57.3837 29.787 57.3066 30.1945C57.226 30.5842 57.0461 30.9184 56.767 31.197C56.5227 31.4369 56.2117 31.5941 55.834 31.6687C55.4563 31.7433 55.1228 31.7568 54.8334 31.7092L53.1269 31.4288L52.6558 33.918ZM53.7418 28.1794L53.2303 30.8823L54.2632 31.052C54.4794 31.0875 54.7013 31.0932 54.9288 31.0691C55.1602 31.0423 55.3689 30.9639 55.5547 30.8339C55.8453 30.6391 56.0283 30.343 56.1035 29.9456C56.1756 29.5646 56.1073 29.2273 55.8988 28.9334C55.6783 28.6308 55.3368 28.4415 54.8744 28.3655L53.7418 28.1794Z" fill="#A62626"/>
<path d="M54.7243 18.8754H50.3657C50.1851 15.4437 49.491 13.6603 47.4599 10.6678C45.6049 8.43959 44.1942 7.33816 40.9219 5.67553C36.253 3.93808 33.5969 3.58607 28.7539 4.66015C25.0891 5.58302 23.3908 6.59978 21.3078 9.73702C20.3196 12.2598 20.6021 13.5798 22.0343 15.8293C23.976 18.3291 25.6587 18.8778 28.7539 19.7215C33.0419 20.488 35.4473 20.7061 39.7414 20.3138C45.0279 19.8587 47.9728 19.895 53.1806 20.6523C61.4808 21.9501 65.1185 23.9758 68.89 31.0598C70.1521 35.4252 70.573 37.7967 68.89 41.3828C67.95 42.9208 67.3175 43.643 65.621 44.1751L63.6233 40.9597C65.8466 37.7873 65.3172 35.5865 63.6233 31.4829C61.0041 27.2882 58.2053 25.8093 51.6369 24.2061C47.0412 23.2567 44.431 23.1626 39.7414 23.4445C35.1723 23.552 32.6589 23.2606 28.2999 21.8369C24.1323 20.3529 22.0495 19.0958 18.9469 15.8293C16.8204 12.8381 16.6974 11.0857 17.6756 7.8755C19.9692 3.50991 22.2409 1.87131 28.2999 0.598662C33.8841 -0.452884 36.6959 -0.0695586 41.4667 1.36019C46.0012 2.99723 47.9864 4.48827 50.8197 7.8755C53.5007 11.484 54.2145 13.9763 54.7243 18.8754Z" fill="#A62626"/>
<path d="M27.2757 41.3765H31.6343C31.8149 44.8081 32.509 46.5915 34.5401 49.5841C36.3951 51.8122 37.8058 52.9137 41.0781 54.5763C45.747 56.3137 48.4031 56.6658 53.2461 55.5917C56.9109 54.6688 58.6092 53.652 60.6922 50.5148C61.6804 47.992 61.3979 46.672 59.9657 44.4226C58.024 41.9228 56.3413 41.374 53.2461 40.5303C48.9581 39.7638 46.5527 39.5458 42.2586 39.938C36.9721 40.3931 34.0272 40.3568 28.8194 39.5996C20.5192 38.3017 16.8815 36.276 13.11 29.192C11.8479 24.8267 11.427 22.4552 13.11 18.869C14.05 17.331 14.6825 16.6088 16.379 16.0768L18.3767 19.2921C16.1534 22.4645 16.6828 24.6653 18.3767 28.7689C20.9959 32.9636 23.7947 34.4425 30.3631 36.0458C34.9588 36.9951 37.569 37.0892 42.2586 36.8073C46.8277 36.6999 49.3411 36.9912 53.7001 38.415C57.8677 39.8989 59.9505 41.1561 63.0531 44.4226C65.1796 47.4138 65.3026 49.1662 64.3244 52.3763C62.0308 56.7419 59.7591 58.3805 53.7001 59.6532C48.1159 60.7047 45.3041 60.3214 40.5333 58.8916C35.9988 57.2546 34.0136 55.7636 31.1803 52.3763C28.4993 48.7678 27.7855 46.2755 27.2757 41.3765Z" fill="#A62626"/>
<path d="M87.2461 24.1211C87.832 24.082 88.3945 23.9297 88.9336 23.6641C89.4727 23.3906 89.9062 22.9922 90.2344 22.4688C90.5781 21.9141 90.75 21.2422 90.75 20.4531V20.3242C90.7266 19.5117 90.4219 18.8945 89.8359 18.4727C89.5703 18.2695 89.2461 18.1133 88.8633 18.0039C88.0508 17.7852 87.207 17.6289 86.332 17.5352C85.4648 17.4336 84.625 17.1875 83.8125 16.7969C83.0625 16.4453 82.5039 15.9336 82.1367 15.2617C81.7773 14.582 81.5977 13.8516 81.5977 13.0703C81.5977 11.5469 82.1328 10.2969 83.2031 9.32031C84.3125 8.29688 85.707 7.78516 87.3867 7.78516H87.75C89.5547 7.86328 91.1328 8.33984 92.4844 9.21484L92.1914 11.8047C92.1602 12.0859 91.9883 12.2266 91.6758 12.2266H91.6172C91.3828 12.2109 91.1953 12.0508 91.0547 11.7461C90.7422 11.0742 90.2852 10.5078 89.6836 10.0469C89.0898 9.58594 88.457 9.33984 87.7852 9.30859H87.6094C86.9375 9.30859 86.3477 9.42578 85.8398 9.66016C85.5039 9.83203 85.2383 10.0195 85.043 10.2227C84.8555 10.4258 84.6875 10.6758 84.5391 10.9727C84.4219 11.2148 84.332 11.5 84.2695 11.8281C84.2148 12.0703 84.1875 12.2969 84.1875 12.5078C84.1875 12.7891 84.2305 13.0508 84.3164 13.293C84.4648 13.7695 84.7188 14.1328 85.0781 14.3828C85.3438 14.5859 85.6367 14.7266 85.957 14.8047C86.1523 14.8594 86.3867 14.9102 86.6602 14.957C86.9336 15.0039 87.2227 15.0508 87.5273 15.0977C87.9727 15.168 88.4453 15.2422 88.9453 15.3203C89.4531 15.3984 89.9492 15.5078 90.4336 15.6484C91.2695 15.9219 91.8945 16.2812 92.3086 16.7266C92.6055 17.0703 92.8516 17.4453 93.0469 17.8516C93.2656 18.3906 93.375 18.9805 93.375 19.6211C93.375 21.3555 92.668 22.8008 91.2539 23.957C90.5195 24.5586 89.707 25.0039 88.8164 25.293C88.0977 25.5195 87.332 25.6484 86.5195 25.6797C86.3477 25.6875 86.1758 25.6914 86.0039 25.6914C84.8867 25.6914 83.7656 25.5195 82.6406 25.1758L81.4922 21.9766C81.4688 21.9141 81.457 21.8516 81.457 21.7891C81.457 21.6719 81.4961 21.5586 81.5742 21.4492C81.6914 21.2617 81.875 21.168 82.125 21.168C82.3359 21.2227 82.5078 21.3867 82.6406 21.6602C83.1172 22.6992 83.707 23.3867 84.4102 23.7227C84.9883 24.0039 85.7305 24.1445 86.6367 24.1445C86.832 24.1445 87.0352 24.1367 87.2461 24.1211ZM99.2812 10.2695V23.2773C99.2812 23.6914 99.4766 23.9688 99.8672 24.1094C100.258 24.2422 100.453 24.457 100.453 24.7539C100.453 25.0742 100.273 25.2344 99.9141 25.2344H95.9414C95.5898 25.2344 95.4141 25.0742 95.4141 24.7539C95.4141 24.457 95.6094 24.2422 96 24.1094C96.3906 23.9688 96.5859 23.6953 96.5859 23.2891V10.2695C96.5859 9.86328 96.3906 9.59375 96 9.46094C95.6094 9.32031 95.4141 9.09766 95.4141 8.79297C95.4141 8.47266 95.5938 8.3125 95.9531 8.3125H99.9141C100.273 8.3125 100.453 8.47266 100.453 8.79297C100.453 9.09766 100.258 9.32031 99.8672 9.46094C99.4766 9.59375 99.2812 9.86328 99.2812 10.2695ZM112.008 8.04297C112.445 9.07422 112.949 10.2578 113.52 11.5938C114.098 12.9297 114.691 14.3047 115.301 15.7188C115.918 17.1328 116.512 18.5078 117.082 19.8438C117.66 21.1797 118.148 22.3047 118.547 23.2188C118.648 23.4688 118.848 23.6953 119.145 23.8984C119.309 24 119.477 24.0898 119.648 24.168C119.828 24.2461 119.98 24.3281 120.105 24.4141C120.223 24.5 120.301 24.5859 120.34 24.6719C120.371 24.7266 120.387 24.7852 120.387 24.8477C120.387 24.9023 120.367 24.9648 120.328 25.0352C120.266 25.168 120.133 25.2344 119.93 25.2344H115.969C115.828 25.2344 115.695 25.1914 115.57 25.1055C115.438 25.0117 115.359 24.9219 115.336 24.8359C115.312 24.7969 115.301 24.7461 115.301 24.6836C115.301 24.5508 115.371 24.4258 115.512 24.3086C115.59 24.2383 115.672 24.1719 115.758 24.1094C115.844 24.0391 115.902 23.957 115.934 23.8633C115.949 23.8164 115.957 23.7656 115.957 23.7109C115.957 23.6016 115.93 23.4805 115.875 23.3477L114.211 19.5039H107.801C107.566 20.0664 107.309 20.6836 107.027 21.3555C106.754 22.0195 106.477 22.6836 106.195 23.3477C106.133 23.4883 106.098 23.6133 106.09 23.7227C106.082 23.7695 106.078 23.8164 106.078 23.8633C106.078 23.9258 106.086 23.9844 106.102 24.0391C106.125 24.1172 106.16 24.1875 106.207 24.25C106.262 24.3125 106.309 24.3984 106.348 24.5078C106.355 24.5859 106.359 24.6406 106.359 24.6719C106.359 24.7266 106.348 24.7773 106.324 24.8242C106.23 25.0977 106.051 25.2344 105.785 25.2344H102.762C102.566 25.2344 102.414 25.1523 102.305 24.9883C102.305 24.9727 102.297 24.9492 102.281 24.918C102.281 24.8555 102.293 24.7812 102.316 24.6953C102.395 24.5234 102.574 24.375 102.855 24.25C102.965 24.1953 103.086 24.1367 103.219 24.0742C103.352 24.0117 103.48 23.9375 103.605 23.8516C103.855 23.6719 104.035 23.457 104.145 23.207L110.859 8.04297H112.008ZM113.602 18.0859L110.953 11.9102C110.641 12.668 110.234 13.6406 109.734 14.8281C109.242 16.0156 108.793 17.1016 108.387 18.0859H113.602ZM125.801 23.2891C125.801 23.6953 125.996 23.9688 126.387 24.1094C126.777 24.2422 126.973 24.457 126.973 24.7539C126.973 25.0742 126.797 25.2344 126.445 25.2344H122.473C122.113 25.2344 121.934 25.0742 121.934 24.7539C121.934 24.457 122.125 24.2422 122.508 24.1094C122.891 23.9688 123.082 23.6953 123.082 23.2891L123.105 10.2695C123.105 9.87109 122.91 9.60156 122.52 9.46094C122.129 9.32031 121.934 9.09766 121.934 8.79297C121.934 8.47266 122.113 8.3125 122.473 8.3125H129.387C130.23 8.3125 131.113 8.46484 132.035 8.76953C132.965 9.06641 133.688 9.65625 134.203 10.5391C134.594 11.2344 134.789 12.0625 134.789 13.0234C134.773 13.9453 134.508 14.7773 133.992 15.5195C133.539 16.1602 132.898 16.6367 132.07 16.9492C131.242 17.2617 130.488 17.418 129.809 17.418H125.801V23.2891ZM125.801 9.75391V16.1289H128.227C128.734 16.1289 129.242 16.0586 129.75 15.918C130.266 15.7695 130.707 15.5117 131.074 15.1445C131.652 14.5898 131.941 13.8438 131.941 12.9062C131.941 12.0078 131.641 11.2617 131.039 10.668C130.406 10.0586 129.547 9.75391 128.461 9.75391H125.801ZM84.123 39.5605C84.416 39.541 84.6973 39.4648 84.9668 39.332C85.2363 39.1953 85.4531 38.9961 85.6172 38.7344C85.7891 38.457 85.875 38.1211 85.875 37.7266V37.6621C85.8633 37.2559 85.7109 36.9473 85.418 36.7363C85.2852 36.6348 85.123 36.5566 84.9316 36.502C84.5254 36.3926 84.1035 36.3145 83.666 36.2676C83.2324 36.2168 82.8125 36.0938 82.4062 35.8984C82.0312 35.7227 81.752 35.4668 81.5684 35.1309C81.3887 34.791 81.2988 34.4258 81.2988 34.0352C81.2988 33.2734 81.5664 32.6484 82.1016 32.1602C82.6562 31.6484 83.3535 31.3926 84.1934 31.3926H84.375C85.2773 31.4316 86.0664 31.6699 86.7422 32.1074L86.5957 33.4023C86.5801 33.543 86.4941 33.6133 86.3379 33.6133H86.3086C86.1914 33.6055 86.0977 33.5254 86.0273 33.373C85.8711 33.0371 85.6426 32.7539 85.3418 32.5234C85.0449 32.293 84.7285 32.1699 84.3926 32.1543H84.3047C83.9688 32.1543 83.6738 32.2129 83.4199 32.3301C83.252 32.416 83.1191 32.5098 83.0215 32.6113C82.9277 32.7129 82.8438 32.8379 82.7695 32.9863C82.7109 33.1074 82.666 33.25 82.6348 33.4141C82.6074 33.5352 82.5938 33.6484 82.5938 33.7539C82.5938 33.8945 82.6152 34.0254 82.6582 34.1465C82.7324 34.3848 82.8594 34.5664 83.0391 34.6914C83.1719 34.793 83.3184 34.8633 83.4785 34.9023C83.5762 34.9297 83.6934 34.9551 83.8301 34.9785C83.9668 35.002 84.1113 35.0254 84.2637 35.0488C84.4863 35.084 84.7227 35.1211 84.9727 35.1602C85.2266 35.1992 85.4746 35.2539 85.7168 35.3242C86.1348 35.4609 86.4473 35.6406 86.6543 35.8633C86.8027 36.0352 86.9258 36.2227 87.0234 36.4258C87.1328 36.6953 87.1875 36.9902 87.1875 37.3105C87.1875 38.1777 86.834 38.9004 86.127 39.4785C85.7598 39.7793 85.3535 40.002 84.9082 40.1465C84.5488 40.2598 84.166 40.3242 83.7598 40.3398C83.6738 40.3438 83.5879 40.3457 83.502 40.3457C82.9434 40.3457 82.3828 40.2598 81.8203 40.0879L81.2461 38.4883C81.2344 38.457 81.2285 38.4258 81.2285 38.3945C81.2285 38.3359 81.248 38.2793 81.2871 38.2246C81.3457 38.1309 81.4375 38.084 81.5625 38.084C81.668 38.1113 81.7539 38.1934 81.8203 38.3301C82.0586 38.8496 82.3535 39.1934 82.7051 39.3613C82.9941 39.502 83.3652 39.5723 83.8184 39.5723C83.916 39.5723 84.0176 39.5684 84.123 39.5605ZM89.2148 31.6797C89.7383 31.6797 90 31.9336 90 32.4414C90 32.9531 89.7383 33.209 89.2148 33.209C88.6914 33.209 88.4297 32.9531 88.4297 32.4414C88.4297 31.9336 88.6914 31.6797 89.2148 31.6797ZM89.8887 39.1445C89.8887 39.3477 89.9863 39.4844 90.1816 39.5547C90.377 39.6211 90.4746 39.7285 90.4746 39.877C90.4746 40.0371 90.3867 40.1172 90.2109 40.1172H88.2246C88.0449 40.1172 87.9551 40.0371 87.9551 39.877C87.9551 39.7285 88.0527 39.6211 88.248 39.5547C88.4434 39.4844 88.541 39.3477 88.541 39.1445V35.3945C88.541 35.1992 88.4434 35.0664 88.248 34.9961C88.0527 34.9258 87.9551 34.8145 87.9551 34.6621C87.9551 34.502 88.043 34.4219 88.2188 34.4219C88.4609 34.4102 88.7031 34.3711 88.9453 34.3047C89.1914 34.2383 89.5059 34.1406 89.8887 34.0117V39.1445ZM93.8086 34.2695C94.4102 34.3008 95 34.4961 95.5781 34.8555L95.4492 35.9453C95.4297 36.0742 95.3496 36.1387 95.209 36.1387H95.1855C95.0723 36.1309 94.9844 36.0586 94.9219 35.9219C94.793 35.6445 94.6035 35.416 94.3535 35.2363C94.1074 35.0566 93.8457 34.9609 93.5684 34.9492H93.5508C93.3359 34.9492 93.125 35.0039 92.918 35.1133C92.7148 35.2188 92.5898 35.3828 92.543 35.6055C92.5234 35.6875 92.5137 35.7598 92.5137 35.8223C92.5137 36.0254 92.5996 36.168 92.7715 36.25C93.0371 36.3828 93.3477 36.4902 93.7031 36.5723C94.2188 36.6855 94.6953 36.8457 95.1328 37.0527C95.5742 37.2559 95.8164 37.6855 95.8594 38.3418V38.4004C95.8594 38.709 95.7402 39.0176 95.502 39.3262C95.2441 39.6621 94.8711 39.9141 94.3828 40.082C94.082 40.1836 93.75 40.2402 93.3867 40.252H93.2227C92.7266 40.252 92.2285 40.1797 91.7285 40.0352L91.2246 38.6699L91.2422 38.5293C91.25 38.4004 91.334 38.3359 91.4941 38.3359H91.5234C91.6211 38.3555 91.7012 38.4277 91.7637 38.5527C91.9355 38.9199 92.1387 39.1777 92.373 39.3262C92.6113 39.4707 92.9121 39.5488 93.2754 39.5605H93.3457C93.5996 39.5605 93.8828 39.5 94.1953 39.3789C94.5039 39.2578 94.6641 39.0391 94.6758 38.7227V38.6875C94.6758 38.3203 94.5098 38.0898 94.1777 37.9961C93.7637 37.8789 93.4004 37.7754 93.0879 37.6855C92.6855 37.5762 92.3066 37.4004 91.9512 37.1582C91.5801 36.9082 91.3945 36.543 91.3945 36.0625V36.0332C91.3984 35.3887 91.6543 34.9258 92.1621 34.6445C92.6113 34.3906 93.1094 34.2637 93.6562 34.2637C93.707 34.2637 93.7578 34.2656 93.8086 34.2695ZM97.1719 35.1719C97.125 35.1719 96.9531 35.1797 96.6562 35.1953H96.6211C96.4531 35.1953 96.3652 35.1172 96.3574 34.9609V34.9492C96.3574 34.8438 96.4199 34.7617 96.5449 34.7031C96.6191 34.668 96.7773 34.584 97.0195 34.4512C97.082 34.4199 97.1465 34.3906 97.2129 34.3633C97.2246 34.3594 97.2305 34.3555 97.2305 34.3516C97.2305 34.3477 97.2109 34.3457 97.1719 34.3457V33.4609C97.1719 33.2383 97.2207 33.082 97.3184 32.9922C97.416 32.8984 97.6152 32.7793 97.916 32.6348C98.0449 32.5723 98.1543 32.541 98.2441 32.541C98.4316 32.541 98.5254 32.6309 98.5254 32.8105V34.3223L99.7734 34.2988H99.7793C99.9355 34.2988 100.014 34.3887 100.014 34.5684C100.014 34.627 100.006 34.6992 99.9902 34.7852C99.9355 35.0352 99.7988 35.1602 99.5801 35.1602L98.5254 35.1543V38.7109C98.5254 39.0312 98.6348 39.2695 98.8535 39.4258C99.0762 39.582 99.3027 39.6758 99.5332 39.707V40.1113C98.8379 40.1113 98.2695 40.0508 97.8281 39.9297C97.3906 39.8086 97.1719 39.3438 97.1719 38.5352V35.1719ZM100.395 36.748C100.508 36.002 100.811 35.4004 101.303 34.9434C101.795 34.4863 102.443 34.2539 103.248 34.2461H103.271C104.088 34.2461 104.715 34.4805 105.152 34.9492C105.578 35.418 105.791 36.0215 105.791 36.7598C105.787 36.9199 105.779 37.0508 105.768 37.1523C105.756 37.2539 105.629 37.3047 105.387 37.3047H101.801C101.812 37.8398 101.963 38.3047 102.252 38.6992C102.545 39.0898 102.906 39.3281 103.336 39.4141C103.461 39.4414 103.588 39.4551 103.717 39.4551C104.061 39.4551 104.418 39.3535 104.789 39.1504C105.039 39.0176 105.217 38.9512 105.322 38.9512C105.377 38.9512 105.428 38.9668 105.475 38.998C105.514 39.0371 105.533 39.082 105.533 39.1328C105.533 39.1992 105.504 39.2852 105.445 39.3906C105.395 39.4961 105.352 39.5664 105.316 39.6016C105.285 39.6367 105.256 39.668 105.229 39.6953C104.771 40.0898 104.156 40.2871 103.383 40.2871C102.305 40.2793 101.498 39.9355 100.963 39.2559C100.549 38.7324 100.342 38.1152 100.342 37.4043C100.342 37.1934 100.359 36.9746 100.395 36.748ZM101.807 36.6426H104.596C104.596 36.2598 104.492 35.877 104.285 35.4941C104.105 35.1621 103.771 34.9961 103.283 34.9961H103.219C102.73 35.0117 102.375 35.1973 102.152 35.5527C101.934 35.9043 101.818 36.2676 101.807 36.6426ZM108.387 34.7676C108.434 34.752 108.529 34.7168 108.674 34.6621C108.822 34.6074 108.963 34.5566 109.096 34.5098C109.471 34.377 109.857 34.291 110.256 34.252C110.311 34.248 110.365 34.2461 110.42 34.2461C110.787 34.2461 111.133 34.3691 111.457 34.6152C111.57 34.7051 111.639 34.7637 111.662 34.791C111.76 34.7559 111.879 34.7129 112.02 34.6621C112.164 34.6074 112.301 34.5566 112.43 34.5098C112.805 34.3809 113.189 34.2949 113.584 34.252C113.643 34.248 113.699 34.2461 113.754 34.2461C114.117 34.2461 114.461 34.3672 114.785 34.6094C115.293 35 115.547 35.8086 115.547 37.0352V39.1445C115.547 39.3477 115.645 39.4844 115.84 39.5547C116.035 39.6211 116.133 39.7285 116.133 39.877C116.133 40.0371 116.043 40.1172 115.863 40.1172H114.439C114.279 40.1172 114.199 40.0527 114.199 39.9238V37.0352C114.199 36.207 114.033 35.6309 113.701 35.3066C113.502 35.1113 113.262 35.0137 112.98 35.0137C112.812 35.0137 112.627 35.0469 112.424 35.1133C112.346 35.1406 112.25 35.1758 112.137 35.2188C112.027 35.2578 111.969 35.2793 111.961 35.2832C112.129 35.6309 112.213 36.2148 112.213 37.0352V39.1445C112.213 39.3477 112.311 39.4844 112.506 39.5547C112.701 39.6211 112.799 39.7285 112.799 39.877C112.799 40.0371 112.711 40.1172 112.535 40.1172H110.549C110.369 40.1172 110.279 40.0371 110.279 39.877C110.279 39.7285 110.377 39.6211 110.572 39.5547C110.768 39.4844 110.865 39.3477 110.865 39.1445V37.0352C110.865 36.207 110.699 35.6309 110.367 35.3066C110.168 35.1113 109.928 35.0137 109.646 35.0137C109.479 35.0137 109.291 35.0469 109.084 35.1133C108.951 35.1602 108.818 35.209 108.686 35.2598C108.557 35.3105 108.457 35.3496 108.387 35.377V39.1445C108.387 39.3477 108.484 39.4844 108.68 39.5547C108.875 39.6211 108.973 39.7285 108.973 39.877C108.973 40.0371 108.885 40.1172 108.709 40.1172H106.723C106.543 40.1172 106.453 40.0371 106.453 39.877C106.453 39.7285 106.551 39.6211 106.746 39.5547C106.941 39.4844 107.039 39.3477 107.039 39.1445V35.3945C107.039 35.1992 106.941 35.0664 106.746 34.9961C106.551 34.9258 106.453 34.8145 106.453 34.6621C106.453 34.502 106.541 34.4219 106.717 34.4219C106.959 34.4102 107.201 34.3711 107.443 34.3047C107.689 34.2383 108.004 34.1406 108.387 34.0117V34.7676ZM122.438 32.6348V39.1387C122.438 39.3457 122.535 39.4844 122.73 39.5547C122.926 39.6211 123.023 39.7285 123.023 39.877C123.023 40.0371 122.934 40.1172 122.754 40.1172H120.768C120.592 40.1172 120.504 40.0371 120.504 39.877C120.504 39.7285 120.602 39.6211 120.797 39.5547C120.992 39.4844 121.09 39.3477 121.09 39.1445V32.6348C121.09 32.4316 120.992 32.2969 120.797 32.2305C120.602 32.1602 120.504 32.0488 120.504 31.8965C120.504 31.7363 120.594 31.6562 120.773 31.6562H122.754C122.934 31.6562 123.023 31.7363 123.023 31.8965C123.023 32.0488 122.926 32.1602 122.73 32.2305C122.535 32.2969 122.438 32.4316 122.438 32.6348ZM126.053 34.8145C126.131 34.7871 126.252 34.7422 126.416 34.6797C126.58 34.6172 126.736 34.5605 126.885 34.5098C127.26 34.377 127.646 34.291 128.045 34.252C128.1 34.248 128.154 34.2461 128.209 34.2461C128.576 34.2461 128.922 34.3691 129.246 34.6152C129.75 35.002 130.002 35.8086 130.002 37.0352V39.1445C130.002 39.3477 130.1 39.4844 130.295 39.5547C130.49 39.6211 130.588 39.7285 130.588 39.877C130.588 40.0371 130.5 40.1172 130.324 40.1172H128.9C128.736 40.1172 128.654 40.0527 128.654 39.9238V37.0352C128.654 36.207 128.488 35.6309 128.156 35.3066C127.957 35.1113 127.717 35.0137 127.436 35.0137C127.268 35.0137 127.082 35.0469 126.879 35.1133C126.793 35.1445 126.684 35.1855 126.551 35.2363C126.422 35.2832 126.309 35.3262 126.211 35.3652C126.121 35.3965 126.068 35.416 126.053 35.4238V39.1445C126.053 39.3477 126.15 39.4844 126.346 39.5547C126.541 39.6211 126.639 39.7285 126.639 39.877C126.639 40.0371 126.551 40.1172 126.375 40.1172H124.389C124.209 40.1172 124.119 40.0371 124.119 39.877C124.119 39.7285 124.217 39.6211 124.412 39.5547C124.607 39.4844 124.705 39.3477 124.705 39.1445V35.3945C124.705 35.1992 124.607 35.0664 124.412 34.9961C124.217 34.9258 124.119 34.8145 124.119 34.6621C124.119 34.502 124.207 34.4219 124.383 34.4219C124.625 34.4102 124.867 34.3711 125.109 34.3047C125.355 34.2383 125.67 34.1406 126.053 34.0117V34.8145ZM133.189 33.9824V34.3223L134.438 34.2988H134.443C134.6 34.2988 134.678 34.3887 134.678 34.5684C134.678 34.627 134.67 34.6992 134.654 34.7852C134.6 35.0352 134.463 35.1602 134.244 35.1602L133.189 35.1543V39.1445C133.189 39.3477 133.287 39.4844 133.482 39.5547C133.678 39.6211 133.775 39.7285 133.775 39.877C133.775 40.0371 133.686 40.1172 133.506 40.1172H131.52C131.34 40.1172 131.25 40.0371 131.25 39.877C131.25 39.7285 131.348 39.6211 131.543 39.5547C131.738 39.4844 131.836 39.3477 131.836 39.1445V35.1719C131.789 35.1719 131.617 35.1797 131.32 35.1953H131.285C131.117 35.1953 131.029 35.1172 131.021 34.9609V34.9492C131.021 34.8438 131.084 34.7617 131.209 34.7031C131.283 34.668 131.441 34.584 131.684 34.4512C131.746 34.4199 131.811 34.3906 131.877 34.3633C131.889 34.3594 131.895 34.3555 131.895 34.3516C131.895 34.3477 131.875 34.3457 131.836 34.3457V33.9824C131.836 33.4785 131.883 33.0664 131.977 32.7461C132.039 32.5312 132.129 32.3516 132.246 32.207C132.312 32.1211 132.408 32.0566 132.533 32.0137L134.027 31.457C134.078 31.4375 134.162 31.4238 134.279 31.416H134.309C134.426 31.416 134.537 31.4492 134.643 31.5156C134.764 31.6016 134.846 31.6797 134.889 31.75C134.92 31.8125 134.936 31.8906 134.936 31.9844C134.936 32.0195 134.934 32.0547 134.93 32.0898C134.918 32.3242 134.852 32.459 134.73 32.4941H134.689C134.611 32.4941 134.518 32.4551 134.408 32.377C134.248 32.2754 134.094 32.2246 133.945 32.2246C133.859 32.2246 133.773 32.2422 133.688 32.2773C133.41 32.3945 133.254 32.6309 133.219 32.9863C133.203 33.1309 133.193 33.2891 133.189 33.4609C133.189 33.6289 133.189 33.8027 133.189 33.9824ZM138.164 34.2812C138.973 34.3125 139.652 34.6191 140.203 35.2012C140.754 35.7832 141.035 36.4746 141.047 37.2754V37.3105C141.047 38.1191 140.76 38.8047 140.186 39.3672C139.596 39.9414 138.873 40.2402 138.018 40.2637H137.924C137.127 40.2637 136.441 39.9707 135.867 39.3848C135.285 38.7949 134.994 38.0977 134.994 37.293V37.2754C134.998 36.3926 135.332 35.6484 135.996 35.043C136.086 34.9609 136.209 34.8926 136.365 34.8379C136.521 34.7832 136.744 34.7031 137.033 34.5977C137.205 34.5352 137.395 34.4668 137.602 34.3926C137.816 34.3184 137.996 34.2812 138.141 34.2812H138.164ZM138.029 34.9082H137.965C137.562 34.9082 137.211 35.1094 136.91 35.5117C136.578 35.9609 136.412 36.5176 136.412 37.1816C136.412 37.8457 136.572 38.416 136.893 38.8926C137.217 39.3652 137.596 39.6113 138.029 39.6309H138.105C138.504 39.6309 138.852 39.4297 139.148 39.0273C139.48 38.582 139.646 38.0273 139.646 37.3633C139.646 36.6992 139.484 36.1309 139.16 35.6582C138.836 35.1816 138.459 34.9316 138.029 34.9082ZM143.777 36.5137V39.1445C143.777 39.3477 143.873 39.4844 144.064 39.5547C144.26 39.6211 144.357 39.7285 144.357 39.877C144.357 40.0371 144.27 40.1172 144.094 40.1172H142.107C141.928 40.1172 141.838 40.0371 141.838 39.877C141.838 39.7285 141.936 39.6211 142.131 39.5547C142.326 39.4844 142.424 39.3477 142.424 39.1445V35.3945C142.424 35.1992 142.326 35.0664 142.131 34.9961C141.936 34.9258 141.838 34.8145 141.838 34.6621C141.838 34.502 141.926 34.4219 142.102 34.4219C142.344 34.4102 142.586 34.3711 142.828 34.3047C143.074 34.2383 143.391 34.1406 143.777 34.0117V34.7734L144.387 34.5449C144.688 34.4316 144.924 34.3457 145.096 34.2871C145.166 34.2676 145.244 34.2578 145.33 34.2578C145.494 34.2578 145.729 34.3105 146.033 34.416L145.887 36.0801H145.365C145.213 35.5098 144.959 35.2246 144.604 35.2246C144.564 35.2246 144.527 35.2266 144.492 35.2305C144.254 35.2578 144.078 35.3926 143.965 35.6348C143.852 35.873 143.789 36.166 143.777 36.5137ZM148.547 34.7676C148.594 34.752 148.689 34.7168 148.834 34.6621C148.982 34.6074 149.123 34.5566 149.256 34.5098C149.631 34.377 150.018 34.291 150.416 34.252C150.471 34.248 150.525 34.2461 150.58 34.2461C150.947 34.2461 151.293 34.3691 151.617 34.6152C151.73 34.7051 151.799 34.7637 151.822 34.791C151.92 34.7559 152.039 34.7129 152.18 34.6621C152.324 34.6074 152.461 34.5566 152.59 34.5098C152.965 34.3809 153.35 34.2949 153.744 34.252C153.803 34.248 153.859 34.2461 153.914 34.2461C154.277 34.2461 154.621 34.3672 154.945 34.6094C155.453 35 155.707 35.8086 155.707 37.0352V39.1445C155.707 39.3477 155.805 39.4844 156 39.5547C156.195 39.6211 156.293 39.7285 156.293 39.877C156.293 40.0371 156.203 40.1172 156.023 40.1172H154.6C154.439 40.1172 154.359 40.0527 154.359 39.9238V37.0352C154.359 36.207 154.193 35.6309 153.861 35.3066C153.662 35.1113 153.422 35.0137 153.141 35.0137C152.973 35.0137 152.787 35.0469 152.584 35.1133C152.506 35.1406 152.41 35.1758 152.297 35.2188C152.188 35.2578 152.129 35.2793 152.121 35.2832C152.289 35.6309 152.373 36.2148 152.373 37.0352V39.1445C152.373 39.3477 152.471 39.4844 152.666 39.5547C152.861 39.6211 152.959 39.7285 152.959 39.877C152.959 40.0371 152.871 40.1172 152.695 40.1172H150.709C150.529 40.1172 150.439 40.0371 150.439 39.877C150.439 39.7285 150.537 39.6211 150.732 39.5547C150.928 39.4844 151.025 39.3477 151.025 39.1445V37.0352C151.025 36.207 150.859 35.6309 150.527 35.3066C150.328 35.1113 150.088 35.0137 149.807 35.0137C149.639 35.0137 149.451 35.0469 149.244 35.1133C149.111 35.1602 148.979 35.209 148.846 35.2598C148.717 35.3105 148.617 35.3496 148.547 35.377V39.1445C148.547 39.3477 148.645 39.4844 148.84 39.5547C149.035 39.6211 149.133 39.7285 149.133 39.877C149.133 40.0371 149.045 40.1172 148.869 40.1172H146.883C146.703 40.1172 146.613 40.0371 146.613 39.877C146.613 39.7285 146.711 39.6211 146.906 39.5547C147.102 39.4844 147.199 39.3477 147.199 39.1445V35.3945C147.199 35.1992 147.102 35.0664 146.906 34.9961C146.711 34.9258 146.613 34.8145 146.613 34.6621C146.613 34.502 146.701 34.4219 146.877 34.4219C147.119 34.4102 147.361 34.3711 147.604 34.3047C147.85 34.2383 148.164 34.1406 148.547 34.0117V34.7676ZM161.203 39.6719L159.797 40.1875C159.652 40.2383 159.529 40.2637 159.428 40.2637H159.182C158.58 40.2324 158.068 39.9941 157.646 39.5488C157.221 39.0957 156.979 38.5469 156.92 37.9023C156.904 37.7383 156.896 37.5781 156.896 37.4219C156.896 37.2148 156.91 37.0137 156.938 36.8184C156.988 36.4707 157.123 36.125 157.342 35.7812C157.447 35.5977 157.631 35.4062 157.893 35.207C157.99 35.1406 158.098 35.082 158.215 35.0312C158.531 34.9141 158.846 34.7969 159.158 34.6797C159.475 34.5625 159.791 34.4453 160.107 34.3281C160.193 34.2969 160.275 34.2812 160.354 34.2812H160.389C160.654 34.293 160.975 34.3594 161.35 34.4805C161.389 34.4922 161.412 34.502 161.42 34.5098C161.498 34.541 161.598 34.5762 161.719 34.6152C161.75 34.627 161.779 34.6328 161.807 34.6328C161.83 34.6328 161.85 34.627 161.865 34.6152C161.939 34.5527 161.99 34.502 162.018 34.4629C162.068 34.3965 162.137 34.3633 162.223 34.3633C162.266 34.3633 162.305 34.3711 162.34 34.3867C162.484 34.4375 162.557 34.5117 162.557 34.6094V39.1445C162.557 39.3477 162.654 39.4844 162.85 39.5547C163.045 39.6211 163.143 39.7285 163.143 39.877C163.143 40.0371 163.053 40.1172 162.873 40.1172H161.449C161.285 40.1172 161.203 40.0527 161.203 39.9238V39.6719ZM161.203 35.5352C161.078 35.418 160.893 35.3008 160.646 35.1836C160.404 35.0664 160.193 35.0039 160.014 34.9961H159.996C159.941 34.9961 159.883 35.0078 159.82 35.0312C159.68 35.082 159.539 35.1348 159.398 35.1895C159.262 35.2402 159.123 35.291 158.982 35.3418C158.908 35.373 158.85 35.4121 158.807 35.459C158.58 35.7012 158.428 35.9961 158.35 36.3438C158.283 36.6172 158.25 36.8867 158.25 37.1523C158.25 37.2344 158.254 37.3203 158.262 37.4102C158.305 37.9531 158.451 38.3926 158.701 38.7285C158.943 39.0684 159.244 39.2871 159.604 39.3848C159.736 39.4238 159.871 39.4434 160.008 39.4434C160.051 39.4434 160.094 39.4414 160.137 39.4375C160.207 39.4297 160.295 39.4082 160.4 39.373C160.49 39.3418 160.631 39.291 160.822 39.2207C161.014 39.1465 161.141 39.0977 161.203 39.0742V35.5352ZM166.336 34.2695C166.938 34.3008 167.527 34.4961 168.105 34.8555L167.977 35.9453C167.957 36.0742 167.877 36.1387 167.736 36.1387H167.713C167.6 36.1309 167.512 36.0586 167.449 35.9219C167.32 35.6445 167.131 35.416 166.881 35.2363C166.635 35.0566 166.373 34.9609 166.096 34.9492H166.078C165.863 34.9492 165.652 35.0039 165.445 35.1133C165.242 35.2188 165.117 35.3828 165.07 35.6055C165.051 35.6875 165.041 35.7598 165.041 35.8223C165.041 36.0254 165.127 36.168 165.299 36.25C165.564 36.3828 165.875 36.4902 166.23 36.5723C166.746 36.6855 167.223 36.8457 167.66 37.0527C168.102 37.2559 168.344 37.6855 168.387 38.3418V38.4004C168.387 38.709 168.268 39.0176 168.029 39.3262C167.771 39.6621 167.398 39.9141 166.91 40.082C166.609 40.1836 166.277 40.2402 165.914 40.252H165.75C165.254 40.252 164.756 40.1797 164.256 40.0352L163.752 38.6699L163.77 38.5293C163.777 38.4004 163.861 38.3359 164.021 38.3359H164.051C164.148 38.3555 164.229 38.4277 164.291 38.5527C164.463 38.9199 164.666 39.1777 164.9 39.3262C165.139 39.4707 165.439 39.5488 165.803 39.5605H165.873C166.127 39.5605 166.41 39.5 166.723 39.3789C167.031 39.2578 167.191 39.0391 167.203 38.7227V38.6875C167.203 38.3203 167.037 38.0898 166.705 37.9961C166.291 37.8789 165.928 37.7754 165.615 37.6855C165.213 37.5762 164.834 37.4004 164.479 37.1582C164.107 36.9082 163.922 36.543 163.922 36.0625V36.0332C163.926 35.3887 164.182 34.9258 164.689 34.6445C165.139 34.3906 165.637 34.2637 166.184 34.2637C166.234 34.2637 166.285 34.2656 166.336 34.2695ZM170.402 31.6797C170.926 31.6797 171.188 31.9336 171.188 32.4414C171.188 32.9531 170.926 33.209 170.402 33.209C169.879 33.209 169.617 32.9531 169.617 32.4414C169.617 31.9336 169.879 31.6797 170.402 31.6797ZM171.076 39.1445C171.076 39.3477 171.174 39.4844 171.369 39.5547C171.564 39.6211 171.662 39.7285 171.662 39.877C171.662 40.0371 171.574 40.1172 171.398 40.1172H169.412C169.232 40.1172 169.143 40.0371 169.143 39.877C169.143 39.7285 169.24 39.6211 169.436 39.5547C169.631 39.4844 169.729 39.3477 169.729 39.1445V35.3945C169.729 35.1992 169.631 35.0664 169.436 34.9961C169.24 34.9258 169.143 34.8145 169.143 34.6621C169.143 34.502 169.23 34.4219 169.406 34.4219C169.648 34.4102 169.891 34.3711 170.133 34.3047C170.379 34.2383 170.693 34.1406 171.076 34.0117V39.1445ZM180.352 31.5215C180.57 32.0371 180.822 32.6289 181.107 33.2969C181.396 33.9648 181.693 34.6523 181.998 35.3594C182.307 36.0664 182.604 36.7539 182.889 37.4219C183.178 38.0898 183.422 38.6523 183.621 39.1094C183.672 39.2344 183.771 39.3477 183.92 39.4492C184.002 39.5 184.086 39.5449 184.172 39.584C184.262 39.623 184.338 39.6641 184.4 39.707C184.459 39.75 184.498 39.793 184.518 39.8359C184.533 39.8633 184.541 39.8926 184.541 39.9238C184.541 39.9512 184.531 39.9824 184.512 40.0176C184.48 40.084 184.414 40.1172 184.312 40.1172H182.332C182.262 40.1172 182.195 40.0957 182.133 40.0527C182.066 40.0059 182.027 39.9609 182.016 39.918C182.004 39.8984 181.998 39.873 181.998 39.8418C181.998 39.7754 182.033 39.7129 182.104 39.6543C182.143 39.6191 182.184 39.5859 182.227 39.5547C182.27 39.5195 182.299 39.4785 182.314 39.4316C182.322 39.4082 182.326 39.3828 182.326 39.3555C182.326 39.3008 182.312 39.2402 182.285 39.1738L181.453 37.252H178.248C178.131 37.5332 178.002 37.8418 177.861 38.1777C177.725 38.5098 177.586 38.8418 177.445 39.1738C177.414 39.2441 177.396 39.3066 177.393 39.3613C177.389 39.3848 177.387 39.4082 177.387 39.4316C177.387 39.4629 177.391 39.4922 177.398 39.5195C177.41 39.5586 177.428 39.5938 177.451 39.625C177.479 39.6562 177.502 39.6992 177.521 39.7539C177.525 39.793 177.527 39.8203 177.527 39.8359C177.527 39.8633 177.521 39.8887 177.51 39.9121C177.463 40.0488 177.373 40.1172 177.24 40.1172H175.729C175.631 40.1172 175.555 40.0762 175.5 39.9941C175.5 39.9863 175.496 39.9746 175.488 39.959C175.488 39.9277 175.494 39.8906 175.506 39.8477C175.545 39.7617 175.635 39.6875 175.775 39.625C175.83 39.5977 175.891 39.5684 175.957 39.5371C176.023 39.5059 176.088 39.4688 176.15 39.4258C176.275 39.3359 176.365 39.2285 176.42 39.1035L179.777 31.5215H180.352ZM181.148 36.543L179.824 33.4551C179.668 33.834 179.465 34.3203 179.215 34.9141C178.969 35.5078 178.744 36.0508 178.541 36.543H181.148ZM189.316 39.6719L187.91 40.1875C187.766 40.2383 187.643 40.2637 187.541 40.2637H187.295C186.693 40.2324 186.182 39.9941 185.76 39.5488C185.334 39.0957 185.092 38.5469 185.033 37.9023C185.018 37.7383 185.01 37.5781 185.01 37.4219C185.01 37.2148 185.023 37.0137 185.051 36.8184C185.102 36.4707 185.236 36.125 185.455 35.7812C185.561 35.5977 185.744 35.4062 186.006 35.207C186.104 35.1406 186.211 35.082 186.328 35.0312C186.645 34.9141 186.959 34.7969 187.271 34.6797C187.588 34.5625 187.904 34.4453 188.221 34.3281C188.307 34.2969 188.389 34.2812 188.467 34.2812H188.502C188.768 34.293 189.088 34.3594 189.463 34.4805H189.475C189.475 34.4766 189.422 34.4492 189.316 34.3984V32.6348C189.316 32.4355 189.219 32.3008 189.023 32.2305C188.828 32.1602 188.73 32.0488 188.73 31.8965C188.73 31.7363 188.818 31.6562 188.994 31.6562C189.236 31.6445 189.479 31.6074 189.721 31.5449C189.967 31.4785 190.283 31.3809 190.67 31.252V39.1445C190.67 39.3477 190.768 39.4844 190.963 39.5547C191.158 39.6211 191.256 39.7285 191.256 39.877C191.256 40.0371 191.166 40.1172 190.986 40.1172H189.562C189.398 40.1172 189.316 40.0527 189.316 39.9238V39.6719ZM189.316 35.5293C189.176 35.4043 188.986 35.2871 188.748 35.1777C188.51 35.0645 188.303 35.0039 188.127 34.9961H188.109C188.055 34.9961 187.996 35.0078 187.934 35.0312C187.793 35.082 187.652 35.1348 187.512 35.1895C187.375 35.2402 187.236 35.291 187.096 35.3418C187.021 35.373 186.963 35.4121 186.92 35.459C186.693 35.7012 186.541 35.9961 186.463 36.3438C186.396 36.6172 186.363 36.8867 186.363 37.1523C186.363 37.2344 186.367 37.3203 186.375 37.4102C186.418 37.9531 186.564 38.3926 186.814 38.7285C187.057 39.0684 187.357 39.2871 187.717 39.3848C187.85 39.4238 187.984 39.4434 188.121 39.4434C188.164 39.4434 188.207 39.4414 188.25 39.4375C188.32 39.4297 188.408 39.4082 188.514 39.373C188.604 39.3418 188.744 39.291 188.936 39.2207C189.127 39.1465 189.254 39.0977 189.316 39.0742V35.5293ZM194.297 34.7676C194.344 34.752 194.439 34.7168 194.584 34.6621C194.732 34.6074 194.873 34.5566 195.006 34.5098C195.381 34.377 195.768 34.291 196.166 34.252C196.221 34.248 196.275 34.2461 196.33 34.2461C196.697 34.2461 197.043 34.3691 197.367 34.6152C197.48 34.7051 197.549 34.7637 197.572 34.791C197.67 34.7559 197.789 34.7129 197.93 34.6621C198.074 34.6074 198.211 34.5566 198.34 34.5098C198.715 34.3809 199.1 34.2949 199.494 34.252C199.553 34.248 199.609 34.2461 199.664 34.2461C200.027 34.2461 200.371 34.3672 200.695 34.6094C201.203 35 201.457 35.8086 201.457 37.0352V39.1445C201.457 39.3477 201.555 39.4844 201.75 39.5547C201.945 39.6211 202.043 39.7285 202.043 39.877C202.043 40.0371 201.953 40.1172 201.773 40.1172H200.35C200.189 40.1172 200.109 40.0527 200.109 39.9238V37.0352C200.109 36.207 199.943 35.6309 199.611 35.3066C199.412 35.1113 199.172 35.0137 198.891 35.0137C198.723 35.0137 198.537 35.0469 198.334 35.1133C198.256 35.1406 198.16 35.1758 198.047 35.2188C197.938 35.2578 197.879 35.2793 197.871 35.2832C198.039 35.6309 198.123 36.2148 198.123 37.0352V39.1445C198.123 39.3477 198.221 39.4844 198.416 39.5547C198.611 39.6211 198.709 39.7285 198.709 39.877C198.709 40.0371 198.621 40.1172 198.445 40.1172H196.459C196.279 40.1172 196.189 40.0371 196.189 39.877C196.189 39.7285 196.287 39.6211 196.482 39.5547C196.678 39.4844 196.775 39.3477 196.775 39.1445V37.0352C196.775 36.207 196.609 35.6309 196.277 35.3066C196.078 35.1113 195.838 35.0137 195.557 35.0137C195.389 35.0137 195.201 35.0469 194.994 35.1133C194.861 35.1602 194.729 35.209 194.596 35.2598C194.467 35.3105 194.367 35.3496 194.297 35.377V39.1445C194.297 39.3477 194.395 39.4844 194.59 39.5547C194.785 39.6211 194.883 39.7285 194.883 39.877C194.883 40.0371 194.795 40.1172 194.619 40.1172H192.633C192.453 40.1172 192.363 40.0371 192.363 39.877C192.363 39.7285 192.461 39.6211 192.656 39.5547C192.852 39.4844 192.949 39.3477 192.949 39.1445V35.3945C192.949 35.1992 192.852 35.0664 192.656 34.9961C192.461 34.9258 192.363 34.8145 192.363 34.6621C192.363 34.502 192.451 34.4219 192.627 34.4219C192.869 34.4102 193.111 34.3711 193.354 34.3047C193.6 34.2383 193.914 34.1406 194.297 34.0117V34.7676ZM204.199 31.6797C204.723 31.6797 204.984 31.9336 204.984 32.4414C204.984 32.9531 204.723 33.209 204.199 33.209C203.676 33.209 203.414 32.9531 203.414 32.4414C203.414 31.9336 203.676 31.6797 204.199 31.6797ZM204.873 39.1445C204.873 39.3477 204.971 39.4844 205.166 39.5547C205.361 39.6211 205.459 39.7285 205.459 39.877C205.459 40.0371 205.371 40.1172 205.195 40.1172H203.209C203.029 40.1172 202.939 40.0371 202.939 39.877C202.939 39.7285 203.037 39.6211 203.232 39.5547C203.428 39.4844 203.525 39.3477 203.525 39.1445V35.3945C203.525 35.1992 203.428 35.0664 203.232 34.9961C203.037 34.9258 202.939 34.8145 202.939 34.6621C202.939 34.502 203.027 34.4219 203.203 34.4219C203.445 34.4102 203.688 34.3711 203.93 34.3047C204.176 34.2383 204.49 34.1406 204.873 34.0117V39.1445ZM208.178 34.8145C208.256 34.7871 208.377 34.7422 208.541 34.6797C208.705 34.6172 208.861 34.5605 209.01 34.5098C209.385 34.377 209.771 34.291 210.17 34.252C210.225 34.248 210.279 34.2461 210.334 34.2461C210.701 34.2461 211.047 34.3691 211.371 34.6152C211.875 35.002 212.127 35.8086 212.127 37.0352V39.1445C212.127 39.3477 212.225 39.4844 212.42 39.5547C212.615 39.6211 212.713 39.7285 212.713 39.877C212.713 40.0371 212.625 40.1172 212.449 40.1172H211.025C210.861 40.1172 210.779 40.0527 210.779 39.9238V37.0352C210.779 36.207 210.613 35.6309 210.281 35.3066C210.082 35.1113 209.842 35.0137 209.561 35.0137C209.393 35.0137 209.207 35.0469 209.004 35.1133C208.918 35.1445 208.809 35.1855 208.676 35.2363C208.547 35.2832 208.434 35.3262 208.336 35.3652C208.246 35.3965 208.193 35.416 208.178 35.4238V39.1445C208.178 39.3477 208.275 39.4844 208.471 39.5547C208.666 39.6211 208.764 39.7285 208.764 39.877C208.764 40.0371 208.676 40.1172 208.5 40.1172H206.514C206.334 40.1172 206.244 40.0371 206.244 39.877C206.244 39.7285 206.342 39.6211 206.537 39.5547C206.732 39.4844 206.83 39.3477 206.83 39.1445V35.3945C206.83 35.1992 206.732 35.0664 206.537 34.9961C206.342 34.9258 206.244 34.8145 206.244 34.6621C206.244 34.502 206.332 34.4219 206.508 34.4219C206.75 34.4102 206.992 34.3711 207.234 34.3047C207.48 34.2383 207.795 34.1406 208.178 34.0117V34.8145ZM214.664 31.6797C215.188 31.6797 215.449 31.9336 215.449 32.4414C215.449 32.9531 215.188 33.209 214.664 33.209C214.141 33.209 213.879 32.9531 213.879 32.4414C213.879 31.9336 214.141 31.6797 214.664 31.6797ZM215.338 39.1445C215.338 39.3477 215.436 39.4844 215.631 39.5547C215.826 39.6211 215.924 39.7285 215.924 39.877C215.924 40.0371 215.836 40.1172 215.66 40.1172H213.674C213.494 40.1172 213.404 40.0371 213.404 39.877C213.404 39.7285 213.502 39.6211 213.697 39.5547C213.893 39.4844 213.99 39.3477 213.99 39.1445V35.3945C213.99 35.1992 213.893 35.0664 213.697 34.9961C213.502 34.9258 213.404 34.8145 213.404 34.6621C213.404 34.502 213.492 34.4219 213.668 34.4219C213.91 34.4102 214.152 34.3711 214.395 34.3047C214.641 34.2383 214.955 34.1406 215.338 34.0117V39.1445ZM219.258 34.2695C219.859 34.3008 220.449 34.4961 221.027 34.8555L220.898 35.9453C220.879 36.0742 220.799 36.1387 220.658 36.1387H220.635C220.521 36.1309 220.434 36.0586 220.371 35.9219C220.242 35.6445 220.053 35.416 219.803 35.2363C219.557 35.0566 219.295 34.9609 219.018 34.9492H219C218.785 34.9492 218.574 35.0039 218.367 35.1133C218.164 35.2188 218.039 35.3828 217.992 35.6055C217.973 35.6875 217.963 35.7598 217.963 35.8223C217.963 36.0254 218.049 36.168 218.221 36.25C218.486 36.3828 218.797 36.4902 219.152 36.5723C219.668 36.6855 220.145 36.8457 220.582 37.0527C221.023 37.2559 221.266 37.6855 221.309 38.3418V38.4004C221.309 38.709 221.189 39.0176 220.951 39.3262C220.693 39.6621 220.32 39.9141 219.832 40.082C219.531 40.1836 219.199 40.2402 218.836 40.252H218.672C218.176 40.252 217.678 40.1797 217.178 40.0352L216.674 38.6699L216.691 38.5293C216.699 38.4004 216.783 38.3359 216.943 38.3359H216.973C217.07 38.3555 217.15 38.4277 217.213 38.5527C217.385 38.9199 217.588 39.1777 217.822 39.3262C218.061 39.4707 218.361 39.5488 218.725 39.5605H218.795C219.049 39.5605 219.332 39.5 219.645 39.3789C219.953 39.2578 220.113 39.0391 220.125 38.7227V38.6875C220.125 38.3203 219.959 38.0898 219.627 37.9961C219.213 37.8789 218.85 37.7754 218.537 37.6855C218.135 37.5762 217.756 37.4004 217.4 37.1582C217.029 36.9082 216.844 36.543 216.844 36.0625V36.0332C216.848 35.3887 217.104 34.9258 217.611 34.6445C218.061 34.3906 218.559 34.2637 219.105 34.2637C219.156 34.2637 219.207 34.2656 219.258 34.2695ZM222.621 35.1719C222.574 35.1719 222.402 35.1797 222.105 35.1953H222.07C221.902 35.1953 221.814 35.1172 221.807 34.9609V34.9492C221.807 34.8438 221.869 34.7617 221.994 34.7031C222.068 34.668 222.227 34.584 222.469 34.4512C222.531 34.4199 222.596 34.3906 222.662 34.3633C222.674 34.3594 222.68 34.3555 222.68 34.3516C222.68 34.3477 222.66 34.3457 222.621 34.3457V33.4609C222.621 33.2383 222.67 33.082 222.768 32.9922C222.865 32.8984 223.064 32.7793 223.365 32.6348C223.494 32.5723 223.604 32.541 223.693 32.541C223.881 32.541 223.975 32.6309 223.975 32.8105V34.3223L225.223 34.2988H225.229C225.385 34.2988 225.463 34.3887 225.463 34.5684C225.463 34.627 225.455 34.6992 225.439 34.7852C225.385 35.0352 225.248 35.1602 225.029 35.1602L223.975 35.1543V38.7109C223.975 39.0312 224.084 39.2695 224.303 39.4258C224.525 39.582 224.752 39.6758 224.982 39.707V40.1113C224.287 40.1113 223.719 40.0508 223.277 39.9297C222.84 39.8086 222.621 39.3438 222.621 38.5352V35.1719ZM228.059 36.5137V39.1445C228.059 39.3477 228.154 39.4844 228.346 39.5547C228.541 39.6211 228.639 39.7285 228.639 39.877C228.639 40.0371 228.551 40.1172 228.375 40.1172H226.389C226.209 40.1172 226.119 40.0371 226.119 39.877C226.119 39.7285 226.217 39.6211 226.412 39.5547C226.607 39.4844 226.705 39.3477 226.705 39.1445V35.3945C226.705 35.1992 226.607 35.0664 226.412 34.9961C226.217 34.9258 226.119 34.8145 226.119 34.6621C226.119 34.502 226.207 34.4219 226.383 34.4219C226.625 34.4102 226.867 34.3711 227.109 34.3047C227.355 34.2383 227.672 34.1406 228.059 34.0117V34.7734L228.668 34.5449C228.969 34.4316 229.205 34.3457 229.377 34.2871C229.447 34.2676 229.525 34.2578 229.611 34.2578C229.775 34.2578 230.01 34.3105 230.314 34.416L230.168 36.0801H229.646C229.494 35.5098 229.24 35.2246 228.885 35.2246C228.846 35.2246 228.809 35.2266 228.773 35.2305C228.535 35.2578 228.359 35.3926 228.246 35.6348C228.133 35.873 228.07 36.166 228.059 36.5137ZM234.949 39.6719L233.543 40.1875C233.398 40.2383 233.275 40.2637 233.174 40.2637H232.928C232.326 40.2324 231.814 39.9941 231.393 39.5488C230.967 39.0957 230.725 38.5469 230.666 37.9023C230.65 37.7383 230.643 37.5781 230.643 37.4219C230.643 37.2148 230.656 37.0137 230.684 36.8184C230.734 36.4707 230.869 36.125 231.088 35.7812C231.193 35.5977 231.377 35.4062 231.639 35.207C231.736 35.1406 231.844 35.082 231.961 35.0312C232.277 34.9141 232.592 34.7969 232.904 34.6797C233.221 34.5625 233.537 34.4453 233.854 34.3281C233.939 34.2969 234.021 34.2812 234.1 34.2812H234.135C234.4 34.293 234.721 34.3594 235.096 34.4805C235.135 34.4922 235.158 34.502 235.166 34.5098C235.244 34.541 235.344 34.5762 235.465 34.6152C235.496 34.627 235.525 34.6328 235.553 34.6328C235.576 34.6328 235.596 34.627 235.611 34.6152C235.686 34.5527 235.736 34.502 235.764 34.4629C235.814 34.3965 235.883 34.3633 235.969 34.3633C236.012 34.3633 236.051 34.3711 236.086 34.3867C236.23 34.4375 236.303 34.5117 236.303 34.6094V39.1445C236.303 39.3477 236.4 39.4844 236.596 39.5547C236.791 39.6211 236.889 39.7285 236.889 39.877C236.889 40.0371 236.799 40.1172 236.619 40.1172H235.195C235.031 40.1172 234.949 40.0527 234.949 39.9238V39.6719ZM234.949 35.5352C234.824 35.418 234.639 35.3008 234.393 35.1836C234.15 35.0664 233.939 35.0039 233.76 34.9961H233.742C233.688 34.9961 233.629 35.0078 233.566 35.0312C233.426 35.082 233.285 35.1348 233.145 35.1895C233.008 35.2402 232.869 35.291 232.729 35.3418C232.654 35.373 232.596 35.4121 232.553 35.459C232.326 35.7012 232.174 35.9961 232.096 36.3438C232.029 36.6172 231.996 36.8867 231.996 37.1523C231.996 37.2344 232 37.3203 232.008 37.4102C232.051 37.9531 232.197 38.3926 232.447 38.7285C232.689 39.0684 232.99 39.2871 233.35 39.3848C233.482 39.4238 233.617 39.4434 233.754 39.4434C233.797 39.4434 233.84 39.4414 233.883 39.4375C233.953 39.4297 234.041 39.4082 234.146 39.373C234.236 39.3418 234.377 39.291 234.568 39.2207C234.76 39.1465 234.887 39.0977 234.949 39.0742V35.5352ZM240.082 34.2695C240.684 34.3008 241.273 34.4961 241.852 34.8555L241.723 35.9453C241.703 36.0742 241.623 36.1387 241.482 36.1387H241.459C241.346 36.1309 241.258 36.0586 241.195 35.9219C241.066 35.6445 240.877 35.416 240.627 35.2363C240.381 35.0566 240.119 34.9609 239.842 34.9492H239.824C239.609 34.9492 239.398 35.0039 239.191 35.1133C238.988 35.2188 238.863 35.3828 238.816 35.6055C238.797 35.6875 238.787 35.7598 238.787 35.8223C238.787 36.0254 238.873 36.168 239.045 36.25C239.311 36.3828 239.621 36.4902 239.977 36.5723C240.492 36.6855 240.969 36.8457 241.406 37.0527C241.848 37.2559 242.09 37.6855 242.133 38.3418V38.4004C242.133 38.709 242.014 39.0176 241.775 39.3262C241.518 39.6621 241.145 39.9141 240.656 40.082C240.355 40.1836 240.023 40.2402 239.66 40.252H239.496C239 40.252 238.502 40.1797 238.002 40.0352L237.498 38.6699L237.516 38.5293C237.523 38.4004 237.607 38.3359 237.768 38.3359H237.797C237.895 38.3555 237.975 38.4277 238.037 38.5527C238.209 38.9199 238.412 39.1777 238.646 39.3262C238.885 39.4707 239.186 39.5488 239.549 39.5605H239.619C239.873 39.5605 240.156 39.5 240.469 39.3789C240.777 39.2578 240.938 39.0391 240.949 38.7227V38.6875C240.949 38.3203 240.783 38.0898 240.451 37.9961C240.037 37.8789 239.674 37.7754 239.361 37.6855C238.959 37.5762 238.58 37.4004 238.225 37.1582C237.854 36.9082 237.668 36.543 237.668 36.0625V36.0332C237.672 35.3887 237.928 34.9258 238.436 34.6445C238.885 34.3906 239.383 34.2637 239.93 34.2637C239.98 34.2637 240.031 34.2656 240.082 34.2695ZM244.148 31.6797C244.672 31.6797 244.934 31.9336 244.934 32.4414C244.934 32.9531 244.672 33.209 244.148 33.209C243.625 33.209 243.363 32.9531 243.363 32.4414C243.363 31.9336 243.625 31.6797 244.148 31.6797ZM244.822 39.1445C244.822 39.3477 244.92 39.4844 245.115 39.5547C245.311 39.6211 245.408 39.7285 245.408 39.877C245.408 40.0371 245.32 40.1172 245.145 40.1172H243.158C242.979 40.1172 242.889 40.0371 242.889 39.877C242.889 39.7285 242.986 39.6211 243.182 39.5547C243.377 39.4844 243.475 39.3477 243.475 39.1445V35.3945C243.475 35.1992 243.377 35.0664 243.182 34.9961C242.986 34.9258 242.889 34.8145 242.889 34.6621C242.889 34.502 242.977 34.4219 243.152 34.4219C243.395 34.4102 243.637 34.3711 243.879 34.3047C244.125 34.2383 244.439 34.1406 244.822 34.0117V39.1445ZM85.6406 54.6719L84.2344 55.1875C84.0898 55.2383 83.9668 55.2637 83.8652 55.2637H83.6191C83.0176 55.2324 82.5059 54.9941 82.084 54.5488C81.6582 54.0957 81.416 53.5469 81.3574 52.9023C81.3418 52.7383 81.334 52.5781 81.334 52.4219C81.334 52.2148 81.3477 52.0137 81.375 51.8184C81.4258 51.4707 81.5605 51.125 81.7793 50.7812C81.8848 50.5977 82.0684 50.4062 82.3301 50.207C82.4277 50.1406 82.5352 50.082 82.6523 50.0312C82.9688 49.9141 83.2832 49.7969 83.5957 49.6797C83.9121 49.5625 84.2285 49.4453 84.5449 49.3281C84.6309 49.2969 84.7129 49.2812 84.791 49.2812H84.8262C85.0918 49.293 85.4121 49.3594 85.7871 49.4805H85.7988C85.7988 49.4766 85.7461 49.4492 85.6406 49.3984V47.6348C85.6406 47.4355 85.543 47.3008 85.3477 47.2305C85.1523 47.1602 85.0547 47.0488 85.0547 46.8965C85.0547 46.7363 85.1426 46.6562 85.3184 46.6562C85.5605 46.6445 85.8027 46.6074 86.0449 46.5449C86.291 46.4785 86.6074 46.3809 86.9941 46.252V54.1445C86.9941 54.3477 87.0918 54.4844 87.2871 54.5547C87.4824 54.6211 87.5801 54.7285 87.5801 54.877C87.5801 55.0371 87.4902 55.1172 87.3105 55.1172H85.8867C85.7227 55.1172 85.6406 55.0527 85.6406 54.9238V54.6719ZM85.6406 50.5293C85.5 50.4043 85.3105 50.2871 85.0723 50.1777C84.834 50.0645 84.627 50.0039 84.4512 49.9961H84.4336C84.3789 49.9961 84.3203 50.0078 84.2578 50.0312C84.1172 50.082 83.9766 50.1348 83.8359 50.1895C83.6992 50.2402 83.5605 50.291 83.4199 50.3418C83.3457 50.373 83.2871 50.4121 83.2441 50.459C83.0176 50.7012 82.8652 50.9961 82.7871 51.3438C82.7207 51.6172 82.6875 51.8867 82.6875 52.1523C82.6875 52.2344 82.6914 52.3203 82.6992 52.4102C82.7422 52.9531 82.8887 53.3926 83.1387 53.7285C83.3809 54.0684 83.6816 54.2871 84.041 54.3848C84.1738 54.4238 84.3086 54.4434 84.4453 54.4434C84.4883 54.4434 84.5312 54.4414 84.5742 54.4375C84.6445 54.4297 84.7324 54.4082 84.8379 54.373C84.9277 54.3418 85.0684 54.291 85.2598 54.2207C85.4512 54.1465 85.5781 54.0977 85.6406 54.0742V50.5293ZM92.7422 54.6719L91.3359 55.1875C91.1914 55.2383 91.0684 55.2637 90.9668 55.2637H90.7207C90.1191 55.2324 89.6074 54.9941 89.1855 54.5488C88.7598 54.0957 88.5176 53.5469 88.459 52.9023C88.4434 52.7383 88.4355 52.5781 88.4355 52.4219C88.4355 52.2148 88.4492 52.0137 88.4766 51.8184C88.5273 51.4707 88.6621 51.125 88.8809 50.7812C88.9863 50.5977 89.1699 50.4062 89.4316 50.207C89.5293 50.1406 89.6367 50.082 89.7539 50.0312C90.0703 49.9141 90.3848 49.7969 90.6973 49.6797C91.0137 49.5625 91.3301 49.4453 91.6465 49.3281C91.7324 49.2969 91.8145 49.2812 91.8926 49.2812H91.9277C92.1934 49.293 92.5137 49.3594 92.8887 49.4805C92.9277 49.4922 92.9512 49.502 92.959 49.5098C93.0371 49.541 93.1367 49.5762 93.2578 49.6152C93.2891 49.627 93.3184 49.6328 93.3457 49.6328C93.3691 49.6328 93.3887 49.627 93.4043 49.6152C93.4785 49.5527 93.5293 49.502 93.5566 49.4629C93.6074 49.3965 93.6758 49.3633 93.7617 49.3633C93.8047 49.3633 93.8438 49.3711 93.8789 49.3867C94.0234 49.4375 94.0957 49.5117 94.0957 49.6094V54.1445C94.0957 54.3477 94.1934 54.4844 94.3887 54.5547C94.584 54.6211 94.6816 54.7285 94.6816 54.877C94.6816 55.0371 94.5918 55.1172 94.4121 55.1172H92.9883C92.8242 55.1172 92.7422 55.0527 92.7422 54.9238V54.6719ZM92.7422 50.5352C92.6172 50.418 92.4316 50.3008 92.1855 50.1836C91.9434 50.0664 91.7324 50.0039 91.5527 49.9961H91.5352C91.4805 49.9961 91.4219 50.0078 91.3594 50.0312C91.2188 50.082 91.0781 50.1348 90.9375 50.1895C90.8008 50.2402 90.6621 50.291 90.5215 50.3418C90.4473 50.373 90.3887 50.4121 90.3457 50.459C90.1191 50.7012 89.9668 50.9961 89.8887 51.3438C89.8223 51.6172 89.7891 51.8867 89.7891 52.1523C89.7891 52.2344 89.793 52.3203 89.8008 52.4102C89.8438 52.9531 89.9902 53.3926 90.2402 53.7285C90.4824 54.0684 90.7832 54.2871 91.1426 54.3848C91.2754 54.4238 91.4102 54.4434 91.5469 54.4434C91.5898 54.4434 91.6328 54.4414 91.6758 54.4375C91.7461 54.4297 91.834 54.4082 91.9395 54.373C92.0293 54.3418 92.1699 54.291 92.3613 54.2207C92.5527 54.1465 92.6797 54.0977 92.7422 54.0742V50.5352ZM97.2598 49.8145C97.3379 49.7871 97.459 49.7422 97.623 49.6797C97.7871 49.6172 97.9434 49.5605 98.0918 49.5098C98.4668 49.377 98.8535 49.291 99.252 49.252C99.3066 49.248 99.3613 49.2461 99.416 49.2461C99.7832 49.2461 100.129 49.3691 100.453 49.6152C100.957 50.002 101.209 50.8086 101.209 52.0352V54.1445C101.209 54.3477 101.307 54.4844 101.502 54.5547C101.697 54.6211 101.795 54.7285 101.795 54.877C101.795 55.0371 101.707 55.1172 101.531 55.1172H100.107C99.9434 55.1172 99.8613 55.0527 99.8613 54.9238V52.0352C99.8613 51.207 99.6953 50.6309 99.3633 50.3066C99.1641 50.1113 98.9238 50.0137 98.6426 50.0137C98.4746 50.0137 98.2891 50.0469 98.0859 50.1133C98 50.1445 97.8906 50.1855 97.7578 50.2363C97.6289 50.2832 97.5156 50.3262 97.418 50.3652C97.3281 50.3965 97.2754 50.416 97.2598 50.4238V54.1445C97.2598 54.3477 97.3574 54.4844 97.5527 54.5547C97.748 54.6211 97.8457 54.7285 97.8457 54.877C97.8457 55.0371 97.7578 55.1172 97.582 55.1172H95.5957C95.416 55.1172 95.3262 55.0371 95.3262 54.877C95.3262 54.7285 95.4238 54.6211 95.6191 54.5547C95.8145 54.4844 95.9121 54.3477 95.9121 54.1445V50.3945C95.9121 50.1992 95.8145 50.0664 95.6191 49.9961C95.4238 49.9258 95.3262 49.8145 95.3262 49.6621C95.3262 49.502 95.4141 49.4219 95.5898 49.4219C95.832 49.4102 96.0742 49.3711 96.3164 49.3047C96.5625 49.2383 96.877 49.1406 97.2598 49.0117V49.8145ZM107.771 54.1445C107.771 54.3477 107.869 54.4844 108.064 54.5547C108.26 54.6211 108.357 54.7285 108.357 54.877C108.357 55.0371 108.27 55.1172 108.094 55.1172H106.107C105.928 55.1172 105.838 55.0371 105.838 54.877C105.838 54.7285 105.934 54.6211 106.125 54.5547C106.316 54.4844 106.412 54.3477 106.412 54.1445L106.424 47.6348C106.424 47.4355 106.326 47.3008 106.131 47.2305C105.936 47.1602 105.838 47.0488 105.838 46.8965C105.838 46.7363 105.928 46.6562 106.107 46.6562H109.564C109.986 46.6562 110.428 46.7324 110.889 46.8848C111.354 47.0332 111.715 47.3281 111.973 47.7695C112.168 48.1172 112.266 48.5312 112.266 49.0117C112.258 49.4727 112.125 49.8887 111.867 50.2598C111.641 50.5801 111.32 50.8184 110.906 50.9746C110.492 51.1309 110.115 51.209 109.775 51.209H107.771V54.1445ZM107.771 47.377V50.5645H108.984C109.238 50.5645 109.492 50.5293 109.746 50.459C110.004 50.3848 110.225 50.2559 110.408 50.0723C110.697 49.7949 110.842 49.4219 110.842 48.9531C110.842 48.5039 110.691 48.1309 110.391 47.834C110.074 47.5293 109.645 47.377 109.102 47.377H107.771ZM112.359 51.748C112.473 51.002 112.775 50.4004 113.268 49.9434C113.76 49.4863 114.408 49.2539 115.213 49.2461H115.236C116.053 49.2461 116.68 49.4805 117.117 49.9492C117.543 50.418 117.756 51.0215 117.756 51.7598C117.752 51.9199 117.744 52.0508 117.732 52.1523C117.721 52.2539 117.594 52.3047 117.352 52.3047H113.766C113.777 52.8398 113.928 53.3047 114.217 53.6992C114.51 54.0898 114.871 54.3281 115.301 54.4141C115.426 54.4414 115.553 54.4551 115.682 54.4551C116.025 54.4551 116.383 54.3535 116.754 54.1504C117.004 54.0176 117.182 53.9512 117.287 53.9512C117.342 53.9512 117.393 53.9668 117.439 53.998C117.479 54.0371 117.498 54.082 117.498 54.1328C117.498 54.1992 117.469 54.2852 117.41 54.3906C117.359 54.4961 117.316 54.5664 117.281 54.6016C117.25 54.6367 117.221 54.668 117.193 54.6953C116.736 55.0898 116.121 55.2871 115.348 55.2871C114.27 55.2793 113.463 54.9355 112.928 54.2559C112.514 53.7324 112.307 53.1152 112.307 52.4043C112.307 52.1934 112.324 51.9746 112.359 51.748ZM113.771 51.6426H116.561C116.561 51.2598 116.457 50.877 116.25 50.4941C116.07 50.1621 115.736 49.9961 115.248 49.9961H115.184C114.695 50.0117 114.34 50.1973 114.117 50.5527C113.898 50.9043 113.783 51.2676 113.771 51.6426ZM120.217 49.8145C120.295 49.7871 120.416 49.7422 120.58 49.6797C120.744 49.6172 120.9 49.5605 121.049 49.5098C121.424 49.377 121.811 49.291 122.209 49.252C122.264 49.248 122.318 49.2461 122.373 49.2461C122.74 49.2461 123.086 49.3691 123.41 49.6152C123.914 50.002 124.166 50.8086 124.166 52.0352V54.1445C124.166 54.3477 124.264 54.4844 124.459 54.5547C124.654 54.6211 124.752 54.7285 124.752 54.877C124.752 55.0371 124.664 55.1172 124.488 55.1172H123.064C122.9 55.1172 122.818 55.0527 122.818 54.9238V52.0352C122.818 51.207 122.652 50.6309 122.32 50.3066C122.121 50.1113 121.881 50.0137 121.6 50.0137C121.432 50.0137 121.246 50.0469 121.043 50.1133C120.957 50.1445 120.848 50.1855 120.715 50.2363C120.586 50.2832 120.473 50.3262 120.375 50.3652C120.285 50.3965 120.232 50.416 120.217 50.4238V54.1445C120.217 54.3477 120.314 54.4844 120.51 54.5547C120.705 54.6211 120.803 54.7285 120.803 54.877C120.803 55.0371 120.715 55.1172 120.539 55.1172H118.553C118.373 55.1172 118.283 55.0371 118.283 54.877C118.283 54.7285 118.381 54.6211 118.576 54.5547C118.771 54.4844 118.869 54.3477 118.869 54.1445V50.3945C118.869 50.1992 118.771 50.0664 118.576 49.9961C118.381 49.9258 118.283 49.8145 118.283 49.6621C118.283 49.502 118.371 49.4219 118.547 49.4219C118.789 49.4102 119.031 49.3711 119.273 49.3047C119.52 49.2383 119.834 49.1406 120.217 49.0117V49.8145ZM129.457 53.7168V50.5352C129.332 50.418 129.146 50.3008 128.9 50.1836C128.658 50.0664 128.447 50.0039 128.268 49.9961H128.25C128.195 49.9961 128.137 50.0078 128.074 50.0312C127.934 50.082 127.793 50.1348 127.652 50.1895C127.516 50.2402 127.377 50.291 127.236 50.3418C127.162 50.373 127.104 50.4121 127.061 50.459C126.834 50.7012 126.682 50.9961 126.604 51.3438C126.537 51.6172 126.504 51.8867 126.504 52.1523C126.504 52.2344 126.508 52.3203 126.516 52.4102C126.559 52.9531 126.705 53.3926 126.955 53.7285C127.197 54.0684 127.498 54.2871 127.857 54.3848C127.99 54.4238 128.125 54.4434 128.262 54.4434C128.305 54.4434 128.348 54.4414 128.391 54.4375C128.461 54.4297 128.549 54.4082 128.654 54.373C128.744 54.3418 128.883 54.291 129.07 54.2207C129.262 54.1504 129.389 54.1035 129.451 54.0801V53.7168H129.457ZM129.451 54.6719L128.051 55.1875C127.906 55.2383 127.783 55.2637 127.682 55.2637H127.436C126.834 55.2324 126.322 54.9941 125.9 54.5488C125.475 54.0957 125.232 53.5469 125.174 52.9023C125.158 52.7383 125.15 52.5781 125.15 52.4219C125.15 52.2148 125.164 52.0137 125.191 51.8184C125.242 51.4707 125.377 51.125 125.596 50.7812C125.701 50.5977 125.885 50.4062 126.146 50.207C126.244 50.1406 126.352 50.082 126.469 50.0312C126.785 49.9141 127.1 49.7969 127.412 49.6797C127.729 49.5625 128.045 49.4453 128.361 49.3281C128.447 49.2969 128.529 49.2812 128.607 49.2812H128.643C128.908 49.293 129.229 49.3594 129.604 49.4805C129.643 49.4922 129.666 49.502 129.674 49.5098C129.752 49.541 129.852 49.5762 129.973 49.6152C130.004 49.627 130.033 49.6328 130.061 49.6328C130.084 49.6328 130.104 49.627 130.119 49.6152C130.193 49.5527 130.244 49.502 130.271 49.4629C130.322 49.3965 130.391 49.3633 130.477 49.3633C130.52 49.3633 130.559 49.3711 130.594 49.3867C130.738 49.4375 130.811 49.5117 130.811 49.6094V56.0547C130.811 56.7305 130.709 57.1562 130.506 57.332C130.303 57.5117 130.021 57.666 129.662 57.7949L128.051 58.3984C127.906 58.4492 127.783 58.4746 127.682 58.4746C127.576 58.4746 127.492 58.4727 127.43 58.4688C126.836 58.4492 126.322 58.207 125.889 57.7422C125.666 57.5 125.479 57.1816 125.326 56.7871C125.744 56.623 126.182 56.457 126.639 56.2891C126.736 56.5664 126.842 56.7812 126.955 56.9336C127.201 57.2695 127.502 57.4883 127.857 57.5898C127.99 57.625 128.121 57.6426 128.25 57.6426C128.301 57.6426 128.348 57.6406 128.391 57.6367C128.465 57.6289 128.553 57.6094 128.654 57.5781C128.697 57.5586 128.756 57.5352 128.83 57.5078C128.908 57.4805 128.986 57.4512 129.064 57.4199C129.209 57.3496 129.311 57.1816 129.369 56.916C129.428 56.6504 129.457 56.4746 129.457 56.3887L129.451 54.6719ZM131.695 51.748C131.809 51.002 132.111 50.4004 132.604 49.9434C133.096 49.4863 133.744 49.2539 134.549 49.2461H134.572C135.389 49.2461 136.016 49.4805 136.453 49.9492C136.879 50.418 137.092 51.0215 137.092 51.7598C137.088 51.9199 137.08 52.0508 137.068 52.1523C137.057 52.2539 136.93 52.3047 136.688 52.3047H133.102C133.113 52.8398 133.264 53.3047 133.553 53.6992C133.846 54.0898 134.207 54.3281 134.637 54.4141C134.762 54.4414 134.889 54.4551 135.018 54.4551C135.361 54.4551 135.719 54.3535 136.09 54.1504C136.34 54.0176 136.518 53.9512 136.623 53.9512C136.678 53.9512 136.729 53.9668 136.775 53.998C136.814 54.0371 136.834 54.082 136.834 54.1328C136.834 54.1992 136.805 54.2852 136.746 54.3906C136.695 54.4961 136.652 54.5664 136.617 54.6016C136.586 54.6367 136.557 54.668 136.529 54.6953C136.072 55.0898 135.457 55.2871 134.684 55.2871C133.605 55.2793 132.799 54.9355 132.264 54.2559C131.85 53.7324 131.643 53.1152 131.643 52.4043C131.643 52.1934 131.66 51.9746 131.695 51.748ZM133.107 51.6426H135.896C135.896 51.2598 135.793 50.877 135.586 50.4941C135.406 50.1621 135.072 49.9961 134.584 49.9961H134.52C134.031 50.0117 133.676 50.1973 133.453 50.5527C133.234 50.9043 133.119 51.2676 133.107 51.6426ZM139.553 49.8145C139.631 49.7871 139.752 49.7422 139.916 49.6797C140.08 49.6172 140.236 49.5605 140.385 49.5098C140.76 49.377 141.146 49.291 141.545 49.252C141.6 49.248 141.654 49.2461 141.709 49.2461C142.076 49.2461 142.422 49.3691 142.746 49.6152C143.25 50.002 143.502 50.8086 143.502 52.0352V54.1445C143.502 54.3477 143.6 54.4844 143.795 54.5547C143.99 54.6211 144.088 54.7285 144.088 54.877C144.088 55.0371 144 55.1172 143.824 55.1172H142.4C142.236 55.1172 142.154 55.0527 142.154 54.9238V52.0352C142.154 51.207 141.988 50.6309 141.656 50.3066C141.457 50.1113 141.217 50.0137 140.936 50.0137C140.768 50.0137 140.582 50.0469 140.379 50.1133C140.293 50.1445 140.184 50.1855 140.051 50.2363C139.922 50.2832 139.809 50.3262 139.711 50.3652C139.621 50.3965 139.568 50.416 139.553 50.4238V54.1445C139.553 54.3477 139.65 54.4844 139.846 54.5547C140.041 54.6211 140.139 54.7285 140.139 54.877C140.139 55.0371 140.051 55.1172 139.875 55.1172H137.889C137.709 55.1172 137.619 55.0371 137.619 54.877C137.619 54.7285 137.717 54.6211 137.912 54.5547C138.107 54.4844 138.205 54.3477 138.205 54.1445V50.3945C138.205 50.1992 138.107 50.0664 137.912 49.9961C137.717 49.9258 137.619 49.8145 137.619 49.6621C137.619 49.502 137.707 49.4219 137.883 49.4219C138.125 49.4102 138.367 49.3711 138.609 49.3047C138.855 49.2383 139.17 49.1406 139.553 49.0117V49.8145ZM148.91 54.6719L147.504 55.1875C147.359 55.2383 147.236 55.2637 147.135 55.2637H146.889C146.287 55.2324 145.775 54.9941 145.354 54.5488C144.928 54.0957 144.686 53.5469 144.627 52.9023C144.611 52.7383 144.604 52.5781 144.604 52.4219C144.604 52.2148 144.617 52.0137 144.645 51.8184C144.695 51.4707 144.83 51.125 145.049 50.7812C145.154 50.5977 145.338 50.4062 145.6 50.207C145.697 50.1406 145.805 50.082 145.922 50.0312C146.238 49.9141 146.553 49.7969 146.865 49.6797C147.182 49.5625 147.498 49.4453 147.814 49.3281C147.9 49.2969 147.982 49.2812 148.061 49.2812H148.096C148.361 49.293 148.682 49.3594 149.057 49.4805H149.068C149.068 49.4766 149.016 49.4492 148.91 49.3984V47.6348C148.91 47.4355 148.812 47.3008 148.617 47.2305C148.422 47.1602 148.324 47.0488 148.324 46.8965C148.324 46.7363 148.412 46.6562 148.588 46.6562C148.83 46.6445 149.072 46.6074 149.314 46.5449C149.561 46.4785 149.877 46.3809 150.264 46.252V54.1445C150.264 54.3477 150.361 54.4844 150.557 54.5547C150.752 54.6211 150.85 54.7285 150.85 54.877C150.85 55.0371 150.76 55.1172 150.58 55.1172H149.156C148.992 55.1172 148.91 55.0527 148.91 54.9238V54.6719ZM148.91 50.5293C148.77 50.4043 148.58 50.2871 148.342 50.1777C148.104 50.0645 147.896 50.0039 147.721 49.9961H147.703C147.648 49.9961 147.59 50.0078 147.527 50.0312C147.387 50.082 147.246 50.1348 147.105 50.1895C146.969 50.2402 146.83 50.291 146.689 50.3418C146.615 50.373 146.557 50.4121 146.514 50.459C146.287 50.7012 146.135 50.9961 146.057 51.3438C145.99 51.6172 145.957 51.8867 145.957 52.1523C145.957 52.2344 145.961 52.3203 145.969 52.4102C146.012 52.9531 146.158 53.3926 146.408 53.7285C146.65 54.0684 146.951 54.2871 147.311 54.3848C147.443 54.4238 147.578 54.4434 147.715 54.4434C147.758 54.4434 147.801 54.4414 147.844 54.4375C147.914 54.4297 148.002 54.4082 148.107 54.373C148.197 54.3418 148.338 54.291 148.529 54.2207C148.721 54.1465 148.848 54.0977 148.91 54.0742V50.5293ZM156.012 54.6719L154.605 55.1875C154.461 55.2383 154.338 55.2637 154.236 55.2637H153.99C153.389 55.2324 152.877 54.9941 152.455 54.5488C152.029 54.0957 151.787 53.5469 151.729 52.9023C151.713 52.7383 151.705 52.5781 151.705 52.4219C151.705 52.2148 151.719 52.0137 151.746 51.8184C151.797 51.4707 151.932 51.125 152.15 50.7812C152.256 50.5977 152.439 50.4062 152.701 50.207C152.799 50.1406 152.906 50.082 153.023 50.0312C153.34 49.9141 153.654 49.7969 153.967 49.6797C154.283 49.5625 154.6 49.4453 154.916 49.3281C155.002 49.2969 155.084 49.2812 155.162 49.2812H155.197C155.463 49.293 155.783 49.3594 156.158 49.4805C156.197 49.4922 156.221 49.502 156.229 49.5098C156.307 49.541 156.406 49.5762 156.527 49.6152C156.559 49.627 156.588 49.6328 156.615 49.6328C156.639 49.6328 156.658 49.627 156.674 49.6152C156.748 49.5527 156.799 49.502 156.826 49.4629C156.877 49.3965 156.945 49.3633 157.031 49.3633C157.074 49.3633 157.113 49.3711 157.148 49.3867C157.293 49.4375 157.365 49.5117 157.365 49.6094V54.1445C157.365 54.3477 157.463 54.4844 157.658 54.5547C157.854 54.6211 157.951 54.7285 157.951 54.877C157.951 55.0371 157.861 55.1172 157.682 55.1172H156.258C156.094 55.1172 156.012 55.0527 156.012 54.9238V54.6719ZM156.012 50.5352C155.887 50.418 155.701 50.3008 155.455 50.1836C155.213 50.0664 155.002 50.0039 154.822 49.9961H154.805C154.75 49.9961 154.691 50.0078 154.629 50.0312C154.488 50.082 154.348 50.1348 154.207 50.1895C154.07 50.2402 153.932 50.291 153.791 50.3418C153.717 50.373 153.658 50.4121 153.615 50.459C153.389 50.7012 153.236 50.9961 153.158 51.3438C153.092 51.6172 153.059 51.8867 153.059 52.1523C153.059 52.2344 153.062 52.3203 153.07 52.4102C153.113 52.9531 153.26 53.3926 153.51 53.7285C153.752 54.0684 154.053 54.2871 154.412 54.3848C154.545 54.4238 154.68 54.4434 154.816 54.4434C154.859 54.4434 154.902 54.4414 154.945 54.4375C155.016 54.4297 155.104 54.4082 155.209 54.373C155.299 54.3418 155.439 54.291 155.631 54.2207C155.822 54.1465 155.949 54.0977 156.012 54.0742V50.5352ZM160.646 54.1445C160.646 54.3477 160.744 54.4844 160.939 54.5547C161.135 54.6211 161.232 54.7285 161.232 54.877C161.232 55.0371 161.145 55.1172 160.969 55.1172H158.982C158.803 55.1172 158.713 55.0371 158.713 54.877C158.713 54.7285 158.811 54.6211 159.006 54.5547C159.201 54.4844 159.299 54.3477 159.299 54.1445V47.6348C159.299 47.4355 159.201 47.3008 159.006 47.2305C158.811 47.1602 158.713 47.0488 158.713 46.8965C158.713 46.7363 158.801 46.6562 158.977 46.6562C159.219 46.6445 159.461 46.6074 159.703 46.5449C159.949 46.4785 160.264 46.3809 160.646 46.252V54.1445ZM163.535 46.6797C164.059 46.6797 164.32 46.9336 164.32 47.4414C164.32 47.9531 164.059 48.209 163.535 48.209C163.012 48.209 162.75 47.9531 162.75 47.4414C162.75 46.9336 163.012 46.6797 163.535 46.6797ZM164.209 54.1445C164.209 54.3477 164.307 54.4844 164.502 54.5547C164.697 54.6211 164.795 54.7285 164.795 54.877C164.795 55.0371 164.707 55.1172 164.531 55.1172H162.545C162.365 55.1172 162.275 55.0371 162.275 54.877C162.275 54.7285 162.373 54.6211 162.568 54.5547C162.764 54.4844 162.861 54.3477 162.861 54.1445V50.3945C162.861 50.1992 162.764 50.0664 162.568 49.9961C162.373 49.9258 162.275 49.8145 162.275 49.6621C162.275 49.502 162.363 49.4219 162.539 49.4219C162.781 49.4102 163.023 49.3711 163.266 49.3047C163.512 49.2383 163.826 49.1406 164.209 49.0117V54.1445ZM169.77 54.6719L168.363 55.1875C168.219 55.2383 168.096 55.2637 167.994 55.2637H167.748C167.146 55.2324 166.635 54.9941 166.213 54.5488C165.787 54.0957 165.545 53.5469 165.486 52.9023C165.471 52.7383 165.463 52.5781 165.463 52.4219C165.463 52.2148 165.477 52.0137 165.504 51.8184C165.555 51.4707 165.689 51.125 165.908 50.7812C166.014 50.5977 166.197 50.4062 166.459 50.207C166.557 50.1406 166.664 50.082 166.781 50.0312C167.098 49.9141 167.412 49.7969 167.725 49.6797C168.041 49.5625 168.357 49.4453 168.674 49.3281C168.76 49.2969 168.842 49.2812 168.92 49.2812H168.955C169.221 49.293 169.541 49.3594 169.916 49.4805C169.955 49.4922 169.979 49.502 169.986 49.5098C170.064 49.541 170.164 49.5762 170.285 49.6152C170.316 49.627 170.346 49.6328 170.373 49.6328C170.396 49.6328 170.416 49.627 170.432 49.6152C170.506 49.5527 170.557 49.502 170.584 49.4629C170.635 49.3965 170.703 49.3633 170.789 49.3633C170.832 49.3633 170.871 49.3711 170.906 49.3867C171.051 49.4375 171.123 49.5117 171.123 49.6094V54.1445C171.123 54.3477 171.221 54.4844 171.416 54.5547C171.611 54.6211 171.709 54.7285 171.709 54.877C171.709 55.0371 171.619 55.1172 171.439 55.1172H170.016C169.852 55.1172 169.77 55.0527 169.77 54.9238V54.6719ZM169.77 50.5352C169.645 50.418 169.459 50.3008 169.213 50.1836C168.971 50.0664 168.76 50.0039 168.58 49.9961H168.562C168.508 49.9961 168.449 50.0078 168.387 50.0312C168.246 50.082 168.105 50.1348 167.965 50.1895C167.828 50.2402 167.689 50.291 167.549 50.3418C167.475 50.373 167.416 50.4121 167.373 50.459C167.146 50.7012 166.994 50.9961 166.916 51.3438C166.85 51.6172 166.816 51.8867 166.816 52.1523C166.816 52.2344 166.82 52.3203 166.828 52.4102C166.871 52.9531 167.018 53.3926 167.268 53.7285C167.51 54.0684 167.811 54.2871 168.17 54.3848C168.303 54.4238 168.438 54.4434 168.574 54.4434C168.617 54.4434 168.66 54.4414 168.703 54.4375C168.773 54.4297 168.861 54.4082 168.967 54.373C169.057 54.3418 169.197 54.291 169.389 54.2207C169.58 54.1465 169.707 54.0977 169.77 54.0742V50.5352ZM174.287 49.8145C174.365 49.7871 174.486 49.7422 174.65 49.6797C174.814 49.6172 174.971 49.5605 175.119 49.5098C175.494 49.377 175.881 49.291 176.279 49.252C176.334 49.248 176.389 49.2461 176.443 49.2461C176.811 49.2461 177.156 49.3691 177.48 49.6152C177.984 50.002 178.236 50.8086 178.236 52.0352V54.1445C178.236 54.3477 178.334 54.4844 178.529 54.5547C178.725 54.6211 178.822 54.7285 178.822 54.877C178.822 55.0371 178.734 55.1172 178.559 55.1172H177.135C176.971 55.1172 176.889 55.0527 176.889 54.9238V52.0352C176.889 51.207 176.723 50.6309 176.391 50.3066C176.191 50.1113 175.951 50.0137 175.67 50.0137C175.502 50.0137 175.316 50.0469 175.113 50.1133C175.027 50.1445 174.918 50.1855 174.785 50.2363C174.656 50.2832 174.543 50.3262 174.445 50.3652C174.355 50.3965 174.303 50.416 174.287 50.4238V54.1445C174.287 54.3477 174.385 54.4844 174.58 54.5547C174.775 54.6211 174.873 54.7285 174.873 54.877C174.873 55.0371 174.785 55.1172 174.609 55.1172H172.623C172.443 55.1172 172.354 55.0371 172.354 54.877C172.354 54.7285 172.451 54.6211 172.646 54.5547C172.842 54.4844 172.939 54.3477 172.939 54.1445V50.3945C172.939 50.1992 172.842 50.0664 172.646 49.9961C172.451 49.9258 172.354 49.8145 172.354 49.6621C172.354 49.502 172.441 49.4219 172.617 49.4219C172.859 49.4102 173.102 49.3711 173.344 49.3047C173.59 49.2383 173.904 49.1406 174.287 49.0117V49.8145ZM192.316 47.6348V54.1445C192.316 54.3477 192.414 54.4844 192.609 54.5547C192.809 54.6211 192.908 54.7285 192.908 54.877C192.908 55.0371 192.818 55.1172 192.639 55.1172H190.652C190.473 55.1172 190.383 55.0371 190.383 54.877C190.383 54.7285 190.48 54.6211 190.676 54.5547C190.871 54.4844 190.969 54.3477 190.969 54.1445V48.5195L187.834 55.293H187.406L184.307 48.7832V54.1445C184.307 54.3477 184.404 54.4844 184.6 54.5547C184.795 54.6211 184.893 54.7285 184.893 54.877C184.893 55.0371 184.803 55.1172 184.623 55.1172H183.135C182.955 55.1172 182.865 55.0371 182.865 54.877C182.865 54.7285 182.963 54.6211 183.158 54.5547C183.354 54.4844 183.451 54.3477 183.451 54.1445V47.6348C183.451 47.4355 183.354 47.3008 183.158 47.2305C182.963 47.1602 182.865 47.0488 182.865 46.8965C182.865 46.7363 182.955 46.6562 183.135 46.6562H184.793L187.898 53.0195L190.904 46.6562H192.639C192.818 46.6562 192.908 46.7363 192.908 46.8965C192.908 47.0488 192.809 47.1602 192.609 47.2305C192.414 47.3008 192.316 47.4355 192.316 47.6348ZM199.646 54.1445C199.646 54.3477 199.744 54.4844 199.939 54.5547C200.135 54.6211 200.232 54.7285 200.232 54.877C200.232 55.0371 200.143 55.1172 199.963 55.1172H198.539C198.375 55.1172 198.293 55.0527 198.293 54.9238V54.7305C198.219 54.7578 198.098 54.8047 197.93 54.8711C197.762 54.9336 197.604 54.9902 197.455 55.041C197.084 55.166 196.701 55.248 196.307 55.2871C196.244 55.291 196.186 55.293 196.131 55.293C195.768 55.293 195.426 55.1738 195.105 54.9355C194.598 54.5488 194.344 53.7402 194.344 52.5098V50.3945C194.344 50.1992 194.246 50.0664 194.051 49.9961C193.855 49.9258 193.758 49.8145 193.758 49.6621C193.758 49.502 193.846 49.4219 194.021 49.4219C194.264 49.4102 194.506 49.3711 194.748 49.3047C194.994 49.2383 195.311 49.1406 195.697 49.0117V52.5098C195.697 53.3418 195.863 53.918 196.195 54.2383C196.395 54.4336 196.635 54.5312 196.916 54.5312C197.084 54.5312 197.273 54.4961 197.484 54.4258C197.559 54.4023 197.662 54.3652 197.795 54.3145C197.928 54.2637 198.039 54.2207 198.129 54.1855C198.152 54.1777 198.186 54.166 198.229 54.1504L198.293 54.127V50.3945C198.293 50.1992 198.195 50.0664 198 49.9961C197.805 49.9258 197.707 49.8145 197.707 49.6621C197.707 49.502 197.795 49.4219 197.971 49.4219C198.213 49.4102 198.455 49.3711 198.697 49.3047C198.943 49.2383 199.26 49.1406 199.646 49.0117V54.1445ZM201.738 50.1719C201.691 50.1719 201.52 50.1797 201.223 50.1953H201.188C201.02 50.1953 200.932 50.1172 200.924 49.9609V49.9492C200.924 49.8438 200.986 49.7617 201.111 49.7031C201.186 49.668 201.344 49.584 201.586 49.4512C201.648 49.4199 201.713 49.3906 201.779 49.3633C201.791 49.3594 201.797 49.3555 201.797 49.3516C201.797 49.3477 201.777 49.3457 201.738 49.3457V48.4609C201.738 48.2383 201.787 48.082 201.885 47.9922C201.982 47.8984 202.182 47.7793 202.482 47.6348C202.611 47.5723 202.721 47.541 202.811 47.541C202.998 47.541 203.092 47.6309 203.092 47.8105V49.3223L204.34 49.2988H204.346C204.502 49.2988 204.58 49.3887 204.58 49.5684C204.58 49.627 204.572 49.6992 204.557 49.7852C204.502 50.0352 204.365 50.1602 204.146 50.1602L203.092 50.1543V53.7109C203.092 54.0312 203.201 54.2695 203.42 54.4258C203.643 54.582 203.869 54.6758 204.1 54.707V55.1113C203.404 55.1113 202.836 55.0508 202.395 54.9297C201.957 54.8086 201.738 54.3438 201.738 53.5352V50.1719ZM210.908 54.1445C210.908 54.3477 211.006 54.4844 211.201 54.5547C211.396 54.6211 211.494 54.7285 211.494 54.877C211.494 55.0371 211.404 55.1172 211.225 55.1172H209.801C209.637 55.1172 209.555 55.0527 209.555 54.9238V54.7305C209.48 54.7578 209.359 54.8047 209.191 54.8711C209.023 54.9336 208.865 54.9902 208.717 55.041C208.346 55.166 207.963 55.248 207.568 55.2871C207.506 55.291 207.447 55.293 207.393 55.293C207.029 55.293 206.688 55.1738 206.367 54.9355C205.859 54.5488 205.605 53.7402 205.605 52.5098V50.3945C205.605 50.1992 205.508 50.0664 205.312 49.9961C205.117 49.9258 205.02 49.8145 205.02 49.6621C205.02 49.502 205.107 49.4219 205.283 49.4219C205.525 49.4102 205.768 49.3711 206.01 49.3047C206.256 49.2383 206.572 49.1406 206.959 49.0117V52.5098C206.959 53.3418 207.125 53.918 207.457 54.2383C207.656 54.4336 207.896 54.5312 208.178 54.5312C208.346 54.5312 208.535 54.4961 208.746 54.4258C208.82 54.4023 208.924 54.3652 209.057 54.3145C209.189 54.2637 209.301 54.2207 209.391 54.1855C209.414 54.1777 209.447 54.166 209.49 54.1504L209.555 54.127V50.3945C209.555 50.1992 209.457 50.0664 209.262 49.9961C209.066 49.9258 208.969 49.8145 208.969 49.6621C208.969 49.502 209.057 49.4219 209.232 49.4219C209.475 49.4102 209.717 49.3711 209.959 49.3047C210.205 49.2383 210.521 49.1406 210.908 49.0117V54.1445Z" fill="#A62626"/>
</svg>
