<svg width="24" height="25" viewBox="0 0 24 25" fill="none" xmlns="http://www.w3.org/2000/svg">
<path d="M24 11.9171C23.9985 10.5031 23.4362 9.14741 22.4363 8.14753C21.4364 7.14766 20.0807 6.58528 18.6667 6.58381H14.2444C13.9211 6.56492 8.28667 6.16826 2.92111 1.66826C2.66201 1.45065 2.34618 1.3115 2.01074 1.26716C1.6753 1.22282 1.33417 1.27513 1.02742 1.41794C0.72068 1.56076 0.461061 1.78814 0.279065 2.07339C0.0970702 2.35864 0.000257482 2.6899 0 3.02826V20.806C4.60991e-05 21.1445 0.0967056 21.4759 0.278618 21.7613C0.46053 22.0467 0.720136 22.2743 1.02692 22.4172C1.33371 22.5602 1.67492 22.6126 2.01047 22.5683C2.34601 22.524 2.66194 22.3848 2.92111 22.1671C7.11778 18.6471 11.4767 17.6383 13.3333 17.356V20.8805C13.333 21.1734 13.405 21.4619 13.543 21.7203C13.681 21.9787 13.8808 22.199 14.1244 22.3616L15.3467 23.176C15.5829 23.3337 15.8535 23.4325 16.1357 23.4641C16.418 23.4957 16.7037 23.4592 16.969 23.3577C17.2343 23.2562 17.4713 23.0926 17.6604 22.8806C17.8494 22.6687 17.9849 22.4145 18.0556 22.1394L19.3633 17.2105C20.6464 17.0398 21.8238 16.409 22.6766 15.4353C23.5295 14.4617 23.9997 13.2115 24 11.9171ZM1.77778 20.7983V3.02826C6.53444 7.01826 11.4033 8.02826 13.3333 8.27715V15.5527C11.4056 15.806 6.53778 16.8138 1.77778 20.7983ZM16.3333 21.6871V21.6994L15.1111 20.8849V17.2505H17.5111L16.3333 21.6871ZM18.6667 15.4727H15.1111V8.36159H18.6667C19.6097 8.36159 20.514 8.73619 21.1808 9.40299C21.8476 10.0698 22.2222 10.9742 22.2222 11.9171C22.2222 12.8601 21.8476 13.7645 21.1808 14.4313C20.514 15.0981 19.6097 15.4727 18.6667 15.4727Z" fill="#1C1C1C"/>
</svg>
