<svg width="60" height="60" viewBox="0 0 60 60" fill="none" xmlns="http://www.w3.org/2000/svg">
<path d="M60 30C60 46.5685 46.5685 60 30 60C13.4315 60 0 46.5685 0 30C0 13.4315 13.4315 0 30 0C46.5685 0 60 13.4315 60 30Z" fill="#A62626"/>
<path d="M28.2083 35.3333V25.4853L24.85 28.627L23.0416 26.8749L29.5 20.8333L35.9583 26.8749L34.15 28.627L30.7916 25.4853V35.3333H28.2083ZM21.75 40.1666C21.0395 40.1666 20.4316 39.9302 19.9261 39.4573C19.4207 38.9844 19.1675 38.4153 19.1666 37.7499V34.1249H21.75V37.7499H37.25V34.1249H39.8333V37.7499C39.8333 38.4145 39.5806 38.9836 39.0751 39.4573C38.5696 39.931 37.9612 40.1674 37.25 40.1666H21.75Z" fill="white"/>
</svg>
